%TF.GenerationSoftware,KiCad,Pcbnew,8.0.3*%
%TF.CreationDate,2024-06-29T17:40:48+07:00*%
%TF.ProjectId,solder-reflow,736f6c64-6572-42d7-9265-666c6f772e6b,rev?*%
%TF.SameCoordinates,Original*%
%TF.FileFunction,OtherDrawing,Comment*%
%FSLAX46Y46*%
G04 Gerber Fmt 4.6, Leading zero omitted, Abs format (unit mm)*
G04 Created by KiCad (PCBNEW 8.0.3) date 2024-06-29 17:40:48*
%MOMM*%
%LPD*%
G01*
G04 APERTURE LIST*
%ADD10C,0.150000*%
%ADD11C,0.100000*%
G04 APERTURE END LIST*
D10*
X141071429Y-48233390D02*
X140976191Y-48185771D01*
X140976191Y-48185771D02*
X140928572Y-48138152D01*
X140928572Y-48138152D02*
X140880953Y-48042914D01*
X140880953Y-48042914D02*
X140880953Y-47995295D01*
X140880953Y-47995295D02*
X140928572Y-47900057D01*
X140928572Y-47900057D02*
X140976191Y-47852438D01*
X140976191Y-47852438D02*
X141071429Y-47804819D01*
X141071429Y-47804819D02*
X141261905Y-47804819D01*
X141261905Y-47804819D02*
X141357143Y-47852438D01*
X141357143Y-47852438D02*
X141404762Y-47900057D01*
X141404762Y-47900057D02*
X141452381Y-47995295D01*
X141452381Y-47995295D02*
X141452381Y-48042914D01*
X141452381Y-48042914D02*
X141404762Y-48138152D01*
X141404762Y-48138152D02*
X141357143Y-48185771D01*
X141357143Y-48185771D02*
X141261905Y-48233390D01*
X141261905Y-48233390D02*
X141071429Y-48233390D01*
X141071429Y-48233390D02*
X140976191Y-48281009D01*
X140976191Y-48281009D02*
X140928572Y-48328628D01*
X140928572Y-48328628D02*
X140880953Y-48423866D01*
X140880953Y-48423866D02*
X140880953Y-48614342D01*
X140880953Y-48614342D02*
X140928572Y-48709580D01*
X140928572Y-48709580D02*
X140976191Y-48757200D01*
X140976191Y-48757200D02*
X141071429Y-48804819D01*
X141071429Y-48804819D02*
X141261905Y-48804819D01*
X141261905Y-48804819D02*
X141357143Y-48757200D01*
X141357143Y-48757200D02*
X141404762Y-48709580D01*
X141404762Y-48709580D02*
X141452381Y-48614342D01*
X141452381Y-48614342D02*
X141452381Y-48423866D01*
X141452381Y-48423866D02*
X141404762Y-48328628D01*
X141404762Y-48328628D02*
X141357143Y-48281009D01*
X141357143Y-48281009D02*
X141261905Y-48233390D01*
X142309524Y-47804819D02*
X142119048Y-47804819D01*
X142119048Y-47804819D02*
X142023810Y-47852438D01*
X142023810Y-47852438D02*
X141976191Y-47900057D01*
X141976191Y-47900057D02*
X141880953Y-48042914D01*
X141880953Y-48042914D02*
X141833334Y-48233390D01*
X141833334Y-48233390D02*
X141833334Y-48614342D01*
X141833334Y-48614342D02*
X141880953Y-48709580D01*
X141880953Y-48709580D02*
X141928572Y-48757200D01*
X141928572Y-48757200D02*
X142023810Y-48804819D01*
X142023810Y-48804819D02*
X142214286Y-48804819D01*
X142214286Y-48804819D02*
X142309524Y-48757200D01*
X142309524Y-48757200D02*
X142357143Y-48709580D01*
X142357143Y-48709580D02*
X142404762Y-48614342D01*
X142404762Y-48614342D02*
X142404762Y-48376247D01*
X142404762Y-48376247D02*
X142357143Y-48281009D01*
X142357143Y-48281009D02*
X142309524Y-48233390D01*
X142309524Y-48233390D02*
X142214286Y-48185771D01*
X142214286Y-48185771D02*
X142023810Y-48185771D01*
X142023810Y-48185771D02*
X141928572Y-48233390D01*
X141928572Y-48233390D02*
X141880953Y-48281009D01*
X141880953Y-48281009D02*
X141833334Y-48376247D01*
X142833334Y-48709580D02*
X142880953Y-48757200D01*
X142880953Y-48757200D02*
X142833334Y-48804819D01*
X142833334Y-48804819D02*
X142785715Y-48757200D01*
X142785715Y-48757200D02*
X142833334Y-48709580D01*
X142833334Y-48709580D02*
X142833334Y-48804819D01*
X143500000Y-47804819D02*
X143595238Y-47804819D01*
X143595238Y-47804819D02*
X143690476Y-47852438D01*
X143690476Y-47852438D02*
X143738095Y-47900057D01*
X143738095Y-47900057D02*
X143785714Y-47995295D01*
X143785714Y-47995295D02*
X143833333Y-48185771D01*
X143833333Y-48185771D02*
X143833333Y-48423866D01*
X143833333Y-48423866D02*
X143785714Y-48614342D01*
X143785714Y-48614342D02*
X143738095Y-48709580D01*
X143738095Y-48709580D02*
X143690476Y-48757200D01*
X143690476Y-48757200D02*
X143595238Y-48804819D01*
X143595238Y-48804819D02*
X143500000Y-48804819D01*
X143500000Y-48804819D02*
X143404762Y-48757200D01*
X143404762Y-48757200D02*
X143357143Y-48709580D01*
X143357143Y-48709580D02*
X143309524Y-48614342D01*
X143309524Y-48614342D02*
X143261905Y-48423866D01*
X143261905Y-48423866D02*
X143261905Y-48185771D01*
X143261905Y-48185771D02*
X143309524Y-47995295D01*
X143309524Y-47995295D02*
X143357143Y-47900057D01*
X143357143Y-47900057D02*
X143404762Y-47852438D01*
X143404762Y-47852438D02*
X143500000Y-47804819D01*
X144452381Y-47804819D02*
X144547619Y-47804819D01*
X144547619Y-47804819D02*
X144642857Y-47852438D01*
X144642857Y-47852438D02*
X144690476Y-47900057D01*
X144690476Y-47900057D02*
X144738095Y-47995295D01*
X144738095Y-47995295D02*
X144785714Y-48185771D01*
X144785714Y-48185771D02*
X144785714Y-48423866D01*
X144785714Y-48423866D02*
X144738095Y-48614342D01*
X144738095Y-48614342D02*
X144690476Y-48709580D01*
X144690476Y-48709580D02*
X144642857Y-48757200D01*
X144642857Y-48757200D02*
X144547619Y-48804819D01*
X144547619Y-48804819D02*
X144452381Y-48804819D01*
X144452381Y-48804819D02*
X144357143Y-48757200D01*
X144357143Y-48757200D02*
X144309524Y-48709580D01*
X144309524Y-48709580D02*
X144261905Y-48614342D01*
X144261905Y-48614342D02*
X144214286Y-48423866D01*
X144214286Y-48423866D02*
X144214286Y-48185771D01*
X144214286Y-48185771D02*
X144261905Y-47995295D01*
X144261905Y-47995295D02*
X144309524Y-47900057D01*
X144309524Y-47900057D02*
X144357143Y-47852438D01*
X144357143Y-47852438D02*
X144452381Y-47804819D01*
X145404762Y-47804819D02*
X145500000Y-47804819D01*
X145500000Y-47804819D02*
X145595238Y-47852438D01*
X145595238Y-47852438D02*
X145642857Y-47900057D01*
X145642857Y-47900057D02*
X145690476Y-47995295D01*
X145690476Y-47995295D02*
X145738095Y-48185771D01*
X145738095Y-48185771D02*
X145738095Y-48423866D01*
X145738095Y-48423866D02*
X145690476Y-48614342D01*
X145690476Y-48614342D02*
X145642857Y-48709580D01*
X145642857Y-48709580D02*
X145595238Y-48757200D01*
X145595238Y-48757200D02*
X145500000Y-48804819D01*
X145500000Y-48804819D02*
X145404762Y-48804819D01*
X145404762Y-48804819D02*
X145309524Y-48757200D01*
X145309524Y-48757200D02*
X145261905Y-48709580D01*
X145261905Y-48709580D02*
X145214286Y-48614342D01*
X145214286Y-48614342D02*
X145166667Y-48423866D01*
X145166667Y-48423866D02*
X145166667Y-48185771D01*
X145166667Y-48185771D02*
X145214286Y-47995295D01*
X145214286Y-47995295D02*
X145261905Y-47900057D01*
X145261905Y-47900057D02*
X145309524Y-47852438D01*
X145309524Y-47852438D02*
X145404762Y-47804819D01*
X146357143Y-47804819D02*
X146452381Y-47804819D01*
X146452381Y-47804819D02*
X146547619Y-47852438D01*
X146547619Y-47852438D02*
X146595238Y-47900057D01*
X146595238Y-47900057D02*
X146642857Y-47995295D01*
X146642857Y-47995295D02*
X146690476Y-48185771D01*
X146690476Y-48185771D02*
X146690476Y-48423866D01*
X146690476Y-48423866D02*
X146642857Y-48614342D01*
X146642857Y-48614342D02*
X146595238Y-48709580D01*
X146595238Y-48709580D02*
X146547619Y-48757200D01*
X146547619Y-48757200D02*
X146452381Y-48804819D01*
X146452381Y-48804819D02*
X146357143Y-48804819D01*
X146357143Y-48804819D02*
X146261905Y-48757200D01*
X146261905Y-48757200D02*
X146214286Y-48709580D01*
X146214286Y-48709580D02*
X146166667Y-48614342D01*
X146166667Y-48614342D02*
X146119048Y-48423866D01*
X146119048Y-48423866D02*
X146119048Y-48185771D01*
X146119048Y-48185771D02*
X146166667Y-47995295D01*
X146166667Y-47995295D02*
X146214286Y-47900057D01*
X146214286Y-47900057D02*
X146261905Y-47852438D01*
X146261905Y-47852438D02*
X146357143Y-47804819D01*
X147880953Y-48804819D02*
X147880953Y-48138152D01*
X147880953Y-48233390D02*
X147928572Y-48185771D01*
X147928572Y-48185771D02*
X148023810Y-48138152D01*
X148023810Y-48138152D02*
X148166667Y-48138152D01*
X148166667Y-48138152D02*
X148261905Y-48185771D01*
X148261905Y-48185771D02*
X148309524Y-48281009D01*
X148309524Y-48281009D02*
X148309524Y-48804819D01*
X148309524Y-48281009D02*
X148357143Y-48185771D01*
X148357143Y-48185771D02*
X148452381Y-48138152D01*
X148452381Y-48138152D02*
X148595238Y-48138152D01*
X148595238Y-48138152D02*
X148690477Y-48185771D01*
X148690477Y-48185771D02*
X148738096Y-48281009D01*
X148738096Y-48281009D02*
X148738096Y-48804819D01*
X149214286Y-48804819D02*
X149214286Y-48138152D01*
X149214286Y-48233390D02*
X149261905Y-48185771D01*
X149261905Y-48185771D02*
X149357143Y-48138152D01*
X149357143Y-48138152D02*
X149500000Y-48138152D01*
X149500000Y-48138152D02*
X149595238Y-48185771D01*
X149595238Y-48185771D02*
X149642857Y-48281009D01*
X149642857Y-48281009D02*
X149642857Y-48804819D01*
X149642857Y-48281009D02*
X149690476Y-48185771D01*
X149690476Y-48185771D02*
X149785714Y-48138152D01*
X149785714Y-48138152D02*
X149928571Y-48138152D01*
X149928571Y-48138152D02*
X150023810Y-48185771D01*
X150023810Y-48185771D02*
X150071429Y-48281009D01*
X150071429Y-48281009D02*
X150071429Y-48804819D01*
X102500000Y-66000000D02*
X102500000Y-48913580D01*
X188500000Y-66000000D02*
X188500000Y-48913580D01*
X102500000Y-49500000D02*
X188500000Y-49500000D01*
X102500000Y-49500000D02*
X188500000Y-49500000D01*
X102500000Y-49500000D02*
X103626504Y-48913579D01*
X102500000Y-49500000D02*
X103626504Y-50086421D01*
X188500000Y-49500000D02*
X187373496Y-50086421D01*
X188500000Y-49500000D02*
X187373496Y-48913579D01*
X202804819Y-102892856D02*
X202804819Y-103083332D01*
X202804819Y-103083332D02*
X202852438Y-103178570D01*
X202852438Y-103178570D02*
X202900057Y-103226189D01*
X202900057Y-103226189D02*
X203042914Y-103321427D01*
X203042914Y-103321427D02*
X203233390Y-103369046D01*
X203233390Y-103369046D02*
X203614342Y-103369046D01*
X203614342Y-103369046D02*
X203709580Y-103321427D01*
X203709580Y-103321427D02*
X203757200Y-103273808D01*
X203757200Y-103273808D02*
X203804819Y-103178570D01*
X203804819Y-103178570D02*
X203804819Y-102988094D01*
X203804819Y-102988094D02*
X203757200Y-102892856D01*
X203757200Y-102892856D02*
X203709580Y-102845237D01*
X203709580Y-102845237D02*
X203614342Y-102797618D01*
X203614342Y-102797618D02*
X203376247Y-102797618D01*
X203376247Y-102797618D02*
X203281009Y-102845237D01*
X203281009Y-102845237D02*
X203233390Y-102892856D01*
X203233390Y-102892856D02*
X203185771Y-102988094D01*
X203185771Y-102988094D02*
X203185771Y-103178570D01*
X203185771Y-103178570D02*
X203233390Y-103273808D01*
X203233390Y-103273808D02*
X203281009Y-103321427D01*
X203281009Y-103321427D02*
X203376247Y-103369046D01*
X203138152Y-101940475D02*
X203804819Y-101940475D01*
X202757200Y-102178570D02*
X203471485Y-102416665D01*
X203471485Y-102416665D02*
X203471485Y-101797618D01*
X203709580Y-101416665D02*
X203757200Y-101369046D01*
X203757200Y-101369046D02*
X203804819Y-101416665D01*
X203804819Y-101416665D02*
X203757200Y-101464284D01*
X203757200Y-101464284D02*
X203709580Y-101416665D01*
X203709580Y-101416665D02*
X203804819Y-101416665D01*
X202804819Y-100464285D02*
X202804819Y-100940475D01*
X202804819Y-100940475D02*
X203281009Y-100988094D01*
X203281009Y-100988094D02*
X203233390Y-100940475D01*
X203233390Y-100940475D02*
X203185771Y-100845237D01*
X203185771Y-100845237D02*
X203185771Y-100607142D01*
X203185771Y-100607142D02*
X203233390Y-100511904D01*
X203233390Y-100511904D02*
X203281009Y-100464285D01*
X203281009Y-100464285D02*
X203376247Y-100416666D01*
X203376247Y-100416666D02*
X203614342Y-100416666D01*
X203614342Y-100416666D02*
X203709580Y-100464285D01*
X203709580Y-100464285D02*
X203757200Y-100511904D01*
X203757200Y-100511904D02*
X203804819Y-100607142D01*
X203804819Y-100607142D02*
X203804819Y-100845237D01*
X203804819Y-100845237D02*
X203757200Y-100940475D01*
X203757200Y-100940475D02*
X203709580Y-100988094D01*
X202804819Y-99797618D02*
X202804819Y-99702380D01*
X202804819Y-99702380D02*
X202852438Y-99607142D01*
X202852438Y-99607142D02*
X202900057Y-99559523D01*
X202900057Y-99559523D02*
X202995295Y-99511904D01*
X202995295Y-99511904D02*
X203185771Y-99464285D01*
X203185771Y-99464285D02*
X203423866Y-99464285D01*
X203423866Y-99464285D02*
X203614342Y-99511904D01*
X203614342Y-99511904D02*
X203709580Y-99559523D01*
X203709580Y-99559523D02*
X203757200Y-99607142D01*
X203757200Y-99607142D02*
X203804819Y-99702380D01*
X203804819Y-99702380D02*
X203804819Y-99797618D01*
X203804819Y-99797618D02*
X203757200Y-99892856D01*
X203757200Y-99892856D02*
X203709580Y-99940475D01*
X203709580Y-99940475D02*
X203614342Y-99988094D01*
X203614342Y-99988094D02*
X203423866Y-100035713D01*
X203423866Y-100035713D02*
X203185771Y-100035713D01*
X203185771Y-100035713D02*
X202995295Y-99988094D01*
X202995295Y-99988094D02*
X202900057Y-99940475D01*
X202900057Y-99940475D02*
X202852438Y-99892856D01*
X202852438Y-99892856D02*
X202804819Y-99797618D01*
X202804819Y-98845237D02*
X202804819Y-98749999D01*
X202804819Y-98749999D02*
X202852438Y-98654761D01*
X202852438Y-98654761D02*
X202900057Y-98607142D01*
X202900057Y-98607142D02*
X202995295Y-98559523D01*
X202995295Y-98559523D02*
X203185771Y-98511904D01*
X203185771Y-98511904D02*
X203423866Y-98511904D01*
X203423866Y-98511904D02*
X203614342Y-98559523D01*
X203614342Y-98559523D02*
X203709580Y-98607142D01*
X203709580Y-98607142D02*
X203757200Y-98654761D01*
X203757200Y-98654761D02*
X203804819Y-98749999D01*
X203804819Y-98749999D02*
X203804819Y-98845237D01*
X203804819Y-98845237D02*
X203757200Y-98940475D01*
X203757200Y-98940475D02*
X203709580Y-98988094D01*
X203709580Y-98988094D02*
X203614342Y-99035713D01*
X203614342Y-99035713D02*
X203423866Y-99083332D01*
X203423866Y-99083332D02*
X203185771Y-99083332D01*
X203185771Y-99083332D02*
X202995295Y-99035713D01*
X202995295Y-99035713D02*
X202900057Y-98988094D01*
X202900057Y-98988094D02*
X202852438Y-98940475D01*
X202852438Y-98940475D02*
X202804819Y-98845237D01*
X202804819Y-97892856D02*
X202804819Y-97797618D01*
X202804819Y-97797618D02*
X202852438Y-97702380D01*
X202852438Y-97702380D02*
X202900057Y-97654761D01*
X202900057Y-97654761D02*
X202995295Y-97607142D01*
X202995295Y-97607142D02*
X203185771Y-97559523D01*
X203185771Y-97559523D02*
X203423866Y-97559523D01*
X203423866Y-97559523D02*
X203614342Y-97607142D01*
X203614342Y-97607142D02*
X203709580Y-97654761D01*
X203709580Y-97654761D02*
X203757200Y-97702380D01*
X203757200Y-97702380D02*
X203804819Y-97797618D01*
X203804819Y-97797618D02*
X203804819Y-97892856D01*
X203804819Y-97892856D02*
X203757200Y-97988094D01*
X203757200Y-97988094D02*
X203709580Y-98035713D01*
X203709580Y-98035713D02*
X203614342Y-98083332D01*
X203614342Y-98083332D02*
X203423866Y-98130951D01*
X203423866Y-98130951D02*
X203185771Y-98130951D01*
X203185771Y-98130951D02*
X202995295Y-98083332D01*
X202995295Y-98083332D02*
X202900057Y-98035713D01*
X202900057Y-98035713D02*
X202852438Y-97988094D01*
X202852438Y-97988094D02*
X202804819Y-97892856D01*
X203804819Y-96369046D02*
X203138152Y-96369046D01*
X203233390Y-96369046D02*
X203185771Y-96321427D01*
X203185771Y-96321427D02*
X203138152Y-96226189D01*
X203138152Y-96226189D02*
X203138152Y-96083332D01*
X203138152Y-96083332D02*
X203185771Y-95988094D01*
X203185771Y-95988094D02*
X203281009Y-95940475D01*
X203281009Y-95940475D02*
X203804819Y-95940475D01*
X203281009Y-95940475D02*
X203185771Y-95892856D01*
X203185771Y-95892856D02*
X203138152Y-95797618D01*
X203138152Y-95797618D02*
X203138152Y-95654761D01*
X203138152Y-95654761D02*
X203185771Y-95559522D01*
X203185771Y-95559522D02*
X203281009Y-95511903D01*
X203281009Y-95511903D02*
X203804819Y-95511903D01*
X203804819Y-95035713D02*
X203138152Y-95035713D01*
X203233390Y-95035713D02*
X203185771Y-94988094D01*
X203185771Y-94988094D02*
X203138152Y-94892856D01*
X203138152Y-94892856D02*
X203138152Y-94749999D01*
X203138152Y-94749999D02*
X203185771Y-94654761D01*
X203185771Y-94654761D02*
X203281009Y-94607142D01*
X203281009Y-94607142D02*
X203804819Y-94607142D01*
X203281009Y-94607142D02*
X203185771Y-94559523D01*
X203185771Y-94559523D02*
X203138152Y-94464285D01*
X203138152Y-94464285D02*
X203138152Y-94321428D01*
X203138152Y-94321428D02*
X203185771Y-94226189D01*
X203185771Y-94226189D02*
X203281009Y-94178570D01*
X203281009Y-94178570D02*
X203804819Y-94178570D01*
D11*
X189000000Y-131000000D02*
X205086420Y-131000000D01*
X189000000Y-66500000D02*
X205086420Y-66500000D01*
X204500000Y-131000000D02*
X204500000Y-66500000D01*
X204500000Y-131000000D02*
X204500000Y-66500000D01*
X204500000Y-131000000D02*
X203913579Y-129873496D01*
X204500000Y-131000000D02*
X205086421Y-129873496D01*
X204500000Y-66500000D02*
X205086421Y-67626504D01*
X204500000Y-66500000D02*
X203913579Y-67626504D01*
M02*
