M48
; DRILL file {KiCad 8.0.3} date 2024-06-29T17:41:00+0700
; FORMAT={-:-/ absolute / inch / decimal}
; #@! TF.CreationDate,2024-06-29T17:41:00+07:00
; #@! TF.GenerationSoftware,Kicad,Pcbnew,8.0.3
; #@! TF.FileFunction,Plated,1,2,PTH
FMAT,2
INCH
; #@! TA.AperFunction,Plated,PTH,ViaDrill
T1C0.0157
; #@! TA.AperFunction,Plated,PTH,ComponentDrill
T2C0.0157
; #@! TA.AperFunction,Plated,PTH,ComponentDrill
T3C0.0295
; #@! TA.AperFunction,Plated,PTH,ComponentDrill
T4C0.0315
; #@! TA.AperFunction,Plated,PTH,ComponentDrill
T5C0.0362
; #@! TA.AperFunction,Plated,PTH,ComponentDrill
T6C0.0394
; #@! TA.AperFunction,Plated,PTH,ComponentDrill
T7C0.0472
; #@! TA.AperFunction,Plated,PTH,ComponentDrill
T8C0.0512
; #@! TA.AperFunction,Plated,PTH,ComponentDrill
T9C0.0917
; #@! TA.AperFunction,Plated,PTH,ComponentDrill
T10C0.1260
%
G90
G05
T1
X4.1437Y-3.1693
X4.3701Y-3.3957
X4.3898Y-3.7205
X4.3996Y-3.5335
X4.4094Y-4.6752
X4.4488Y-3.1988
X4.4488Y-3.5039
X4.4587Y-3.8386
X4.4587Y-4.1831
X4.4587Y-4.5177
X4.5548Y-3.3119
X4.5866Y-3.002
X4.5866Y-3.4055
X4.5914Y-2.9065
X4.6161Y-3.1988
X4.6555Y-3.3366
X4.6555Y-3.7992
X4.6624Y-3.9173
X4.6777Y-3.6768
X4.6781Y-4.252
X4.688Y-3.5827
X4.7146Y-3.3051
X4.7146Y-4.5276
X4.7343Y-3.8878
X4.7598Y-3.6939
X4.7638Y-4.1634
X4.7638Y-4.6585
X4.7835Y-3.8681
X4.8031Y-3.3366
X4.8051Y-3.0413
X4.8228Y-3.6024
X4.8327Y-3.1791
X4.8327Y-3.6516
X4.8415Y-3.3868
X4.8425Y-3.4449
X4.8524Y-3.7992
X4.8622Y-3.0413
X4.8819Y-3.9567
X4.8945Y-4.6093
X4.9194Y-4.559
X4.9213Y-4.4783
X4.935Y-2.9921
X4.9409Y-3.6909
X4.9571Y-3.22
X4.9572Y-3.5891
X4.9744Y-3.1102
X4.9902Y-3.6319
X5.003Y-3.6713
X5.0197Y-4.2618
X5.0295Y-4.0433
X5.0295Y-4.2224
X5.0295Y-4.3209
X5.0394Y-4.4783
X5.0492Y-3.3563
X5.0492Y-3.936
X5.187Y-3.1988
X5.187Y-3.7894
X5.1949Y-4.2707
X5.2067Y-3.0413
X5.2067Y-4.0453
X5.2067Y-4.2323
X5.2165Y-4.3996
X5.2175Y-3.2388
X5.2247Y-4.1339
X5.2313Y-3.287
X5.2313Y-3.563
X5.2313Y-3.6024
X5.2322Y-3.1259
X5.2451Y-3.3362
X5.2589Y-3.4252
X5.2726Y-3.0798
X5.2854Y-3.5728
X5.2895Y-3.1438
X5.3Y-2.9498
X5.3553Y-2.9888
X5.3573Y-4.2913
X5.3622Y-3.1557
X5.3632Y-3.6024
X5.3738Y-3.0888
X5.3839Y-3.8681
X5.4134Y-4.0748
X5.4232Y-4.1339
X5.4528Y-4.3504
X5.4724Y-4.1014
X5.502Y-3.622
X5.5105Y-3.1299
X5.5118Y-2.9724
X5.5118Y-3.0118
X5.5118Y-3.0709
X5.5118Y-3.5766
X5.5371Y-3.16
X5.5413Y-3.8583
X5.5459Y-3.9397
X5.5709Y-3.1398
X5.5807Y-3.8976
X5.5807Y-4.1152
X5.5951Y-3.7303
X5.6004Y-3.5925
X5.6102Y-3.1356
X5.6299Y-3.0807
X5.6389Y-3.9301
X5.7506Y-3.9513
X5.7579Y-4.0748
X5.7972Y-3.5138
X5.8071Y-3.4154
X5.8169Y-3.9075
X5.8268Y-4.127
X5.8563Y-3.1004
X5.8661Y-4.127
X5.8957Y-3.1201
X5.9055Y-3.1888
X5.9055Y-3.375
X5.9055Y-4.3012
X5.9252Y-3.5925
X5.9252Y-4.1535
X5.935Y-4.0945
X5.9547Y-3.3268
X5.9675Y-3.375
X5.9843Y-2.9429
X6.0138Y-3.7205
X6.0138Y-4.1535
X6.0207Y-3.3268
X6.0236Y-3.189
X6.063Y-3.6909
X6.0631Y-3.3756
X6.0701Y-3.4144
X6.0751Y-2.9633
X6.0925Y-4.6919
X6.107Y-3.7266
X6.1122Y-3.8189
X6.1417Y-4.0833
X6.1614Y-3.6614
X6.2106Y-3.6122
X6.2291Y-3.6516
X6.2303Y-3.1693
X6.2303Y-4.6654
X6.2375Y-2.9484
X6.2402Y-3.2388
X6.2402Y-4.6171
X6.2684Y-3.8681
X6.2795Y-4.4094
X6.2894Y-3.9075
X6.3159Y-3.4449
X6.3484Y-2.9921
X6.3484Y-3.3661
X6.3503Y-3.6837
X6.3525Y-4.0824
X6.3534Y-3.9764
X6.375Y-3.0906
X6.3878Y-4.2815
X6.3878Y-4.5177
X6.3888Y-3.2677
X6.4065Y-4.1236
X6.4075Y-4.4291
X6.4203Y-4.0256
X6.4272Y-3.2776
X6.4469Y-3.9862
X6.4596Y-3.376
X6.4695Y-3.1588
X6.4764Y-3.75
X6.4961Y-3.1217
X6.5256Y-4.252
X6.5453Y-4.4026
X6.5453Y-4.5079
X6.5974Y-3.7402
X6.5974Y-3.8484
X6.6142Y-4.4183
X6.624Y-2.9626
X6.624Y-3.6319
X6.624Y-4.1142
X6.6407Y-3.2579
X6.6407Y-3.5531
X6.6506Y-3.6686
X6.6535Y-4.2224
X6.6732Y-3.7008
X6.7421Y-4.4291
X6.7757Y-4.2166
X6.811Y-3.6122
X6.811Y-4.4488
X6.8602Y-3.7795
X6.8701Y-3.4843
X6.9193Y-3.6221
X6.9882Y-3.4843
X7.0236Y-3.4449
T2
X5.6768Y-3.2386
X5.6768Y-3.2937
X5.7043Y-3.211
X5.7043Y-3.2661
X5.7043Y-3.3213
X5.7309Y-3.2386
X5.7309Y-3.2937
X5.7594Y-3.211
X5.7594Y-3.2661
X5.7594Y-3.3213
X5.787Y-3.2386
X5.787Y-3.2937
T3
X6.4551Y-4.0748
X6.5551Y-4.0748
T4
X4.9902Y-4.5866
X5.0902Y-4.5866
X5.1902Y-4.5866
T5
X4.4094Y-2.8543
X4.4094Y-2.9331
X4.5079Y-2.8543
X4.5079Y-2.9331
T6
X5.1181Y-2.9951
X5.1181Y-3.0951
X5.1181Y-3.1951
X5.1181Y-3.2951
X5.1181Y-3.3951
X5.1181Y-3.4951
X5.1181Y-3.5951
X5.1181Y-3.6951
X5.1181Y-3.7951
X5.1181Y-3.8951
X5.4163Y-4.2126
X5.4774Y-4.0148
X5.5163Y-4.2126
X5.5774Y-4.0148
X5.6073Y-4.5171
X5.6073Y-4.6171
X5.6163Y-4.2126
X5.6217Y-3.8185
X5.6774Y-4.0148
X5.7073Y-4.5171
X5.7073Y-4.6171
X5.7163Y-4.2126
X5.7217Y-3.8185
X5.7774Y-4.0148
X5.8073Y-4.5171
X5.8073Y-4.6171
X5.8163Y-4.2126
X5.8217Y-3.8185
X5.8774Y-4.0148
X5.9073Y-4.5171
X5.9073Y-4.6171
X5.9163Y-4.2126
X5.9217Y-3.8185
X5.9774Y-4.0148
X6.0073Y-4.5171
X6.0073Y-4.6171
X6.0163Y-4.2126
X6.0173Y-5.0157
X6.0774Y-4.0148
X6.1163Y-4.2126
X6.1774Y-4.0148
X6.2163Y-4.2126
X6.3163Y-4.2126
X6.3173Y-5.0157
X6.5551Y-2.9951
X6.5551Y-3.0951
X6.5551Y-3.1951
X6.5551Y-3.2951
X6.5551Y-3.3951
X6.5551Y-3.4951
X6.5551Y-3.5951
X6.5551Y-3.6951
X6.5551Y-3.7951
X6.5551Y-3.8951
X6.7173Y-5.0157
X6.8173Y-5.0157
T7
X6.7323Y-3.3268
X6.8323Y-3.3268
X6.9323Y-3.3268
T8
X4.6161Y-4.9508
X4.7972Y-4.9508
X5.6555Y-4.9508
X5.8366Y-4.9508
X7.1654Y-3.189
X7.1654Y-3.3858
X7.1654Y-3.622
X7.1654Y-3.8189
X7.1654Y-4.0628
X7.1654Y-4.2596
X7.1654Y-4.5472
X7.1654Y-4.7441
X7.1654Y-4.9409
T9
X4.2217Y-2.7476
X4.6957Y-2.7476
T10
X4.2224Y-3.5236
X4.2618Y-4.9409
X6.6732Y-4.6063
X6.7913Y-3.1102
T6
G00X6.8622Y-2.7854
M15
G01X6.8622Y-2.8642
M16
G05
G00X7.0866Y-2.7067
M15
G01X7.0079Y-2.7067
M16
G05
G00X7.0866Y-2.9429
M15
G01X7.0079Y-2.9429
M16
G05
M30
