%TF.GenerationSoftware,KiCad,Pcbnew,8.0.3*%
%TF.CreationDate,2024-06-29T17:40:50+07:00*%
%TF.ProjectId,solder-reflow,736f6c64-6572-42d7-9265-666c6f772e6b,rev?*%
%TF.SameCoordinates,Original*%
%TF.FileFunction,Other,User*%
%FSLAX46Y46*%
G04 Gerber Fmt 4.6, Leading zero omitted, Abs format (unit mm)*
G04 Created by KiCad (PCBNEW 8.0.3) date 2024-06-29 17:40:50*
%MOMM*%
%LPD*%
G01*
G04 APERTURE LIST*
%ADD10C,0.050000*%
G04 APERTURE END LIST*
D10*
%TO.C,R31*%
X126550000Y-75150000D02*
X128450000Y-75150000D01*
X126550000Y-78850000D02*
X126550000Y-75150000D01*
X128450000Y-75150000D02*
X128450000Y-78850000D01*
X128450000Y-78850000D02*
X126550000Y-78850000D01*
%TO.C,C19*%
X115120000Y-113920000D02*
X118880000Y-113920000D01*
X115120000Y-115880000D02*
X115120000Y-113920000D01*
X118880000Y-113920000D02*
X118880000Y-115880000D01*
X118880000Y-115880000D02*
X115120000Y-115880000D01*
%TO.C,R6*%
X123150000Y-100040000D02*
X126850000Y-100040000D01*
X123150000Y-101940000D02*
X123150000Y-100040000D01*
X126850000Y-100040000D02*
X126850000Y-101940000D01*
X126850000Y-101940000D02*
X123150000Y-101940000D01*
%TO.C,R14*%
X169550000Y-104900000D02*
X171450000Y-104900000D01*
X169550000Y-108600000D02*
X169550000Y-104900000D01*
X171450000Y-104900000D02*
X171450000Y-108600000D01*
X171450000Y-108600000D02*
X169550000Y-108600000D01*
%TO.C,U7*%
X134300000Y-80300000D02*
X134300000Y-90700000D01*
X134300000Y-90700000D02*
X141700000Y-90700000D01*
X141700000Y-80300000D02*
X134300000Y-80300000D01*
X141700000Y-90700000D02*
X141700000Y-80300000D01*
%TO.C,R32*%
X126550000Y-94150000D02*
X128450000Y-94150000D01*
X126550000Y-97850000D02*
X126550000Y-94150000D01*
X128450000Y-94150000D02*
X128450000Y-97850000D01*
X128450000Y-97850000D02*
X126550000Y-97850000D01*
%TO.C,R12*%
X143240000Y-88540000D02*
X146940000Y-88540000D01*
X143240000Y-90440000D02*
X143240000Y-88540000D01*
X146940000Y-88540000D02*
X146940000Y-90440000D01*
X146940000Y-90440000D02*
X143240000Y-90440000D01*
%TO.C,C8*%
X158913000Y-93870000D02*
X160873000Y-93870000D01*
X158913000Y-97630000D02*
X158913000Y-93870000D01*
X160873000Y-93870000D02*
X160873000Y-97630000D01*
X160873000Y-97630000D02*
X158913000Y-97630000D01*
%TO.C,R26*%
X156300000Y-82400000D02*
X158200000Y-82400000D01*
X156300000Y-86100000D02*
X156300000Y-82400000D01*
X158200000Y-82400000D02*
X158200000Y-86100000D01*
X158200000Y-86100000D02*
X156300000Y-86100000D01*
%TO.C,R27*%
X158800000Y-82400000D02*
X160700000Y-82400000D01*
X158800000Y-86100000D02*
X158800000Y-82400000D01*
X160700000Y-82400000D02*
X160700000Y-86100000D01*
X160700000Y-86100000D02*
X158800000Y-86100000D01*
%TO.C,R17*%
X123640002Y-80150000D02*
X125540002Y-80150000D01*
X123640002Y-83850000D02*
X123640002Y-80150000D01*
X125540002Y-80150000D02*
X125540002Y-83850000D01*
X125540002Y-83850000D02*
X123640002Y-83850000D01*
%TO.C,R4*%
X123150000Y-105040000D02*
X126850000Y-105040000D01*
X123150000Y-106940000D02*
X123150000Y-105040000D01*
X126850000Y-105040000D02*
X126850000Y-106940000D01*
X126850000Y-106940000D02*
X123150000Y-106940000D01*
%TO.C,C11*%
X140610000Y-75110000D02*
X142570000Y-75110000D01*
X140610000Y-78870000D02*
X140610000Y-75110000D01*
X142570000Y-75110000D02*
X142570000Y-78870000D01*
X142570000Y-78870000D02*
X140610000Y-78870000D01*
%TO.C,R15*%
X172550000Y-104900000D02*
X174450000Y-104900000D01*
X172550000Y-108600000D02*
X172550000Y-104900000D01*
X174450000Y-104900000D02*
X174450000Y-108600000D01*
X174450000Y-108600000D02*
X172550000Y-108600000D01*
%TO.C,R28*%
X143340910Y-75150000D02*
X145240910Y-75150000D01*
X143340910Y-78850000D02*
X143340910Y-75150000D01*
X145240910Y-75150000D02*
X145240910Y-78850000D01*
X145240910Y-78850000D02*
X143340910Y-78850000D01*
%TO.C,C17*%
X115120000Y-97020000D02*
X118880000Y-97020000D01*
X115120000Y-98980000D02*
X115120000Y-97020000D01*
X118880000Y-97020000D02*
X118880000Y-98980000D01*
X118880000Y-98980000D02*
X115120000Y-98980000D01*
%TO.C,D1*%
X167400000Y-109600000D02*
X172100000Y-109600000D01*
X167400000Y-111900000D02*
X167400000Y-109600000D01*
X172100000Y-111900000D02*
X167400000Y-111900000D01*
X172100000Y-111900000D02*
X172100000Y-109600000D01*
%TO.C,R20*%
X124049998Y-94150000D02*
X125949998Y-94150000D01*
X124049998Y-97850000D02*
X124049998Y-94150000D01*
X125949998Y-94150000D02*
X125949998Y-97850000D01*
X125949998Y-97850000D02*
X124049998Y-97850000D01*
%TO.C,C13*%
X146110000Y-75110000D02*
X148070000Y-75110000D01*
X146110000Y-78870000D02*
X146110000Y-75110000D01*
X148070000Y-75110000D02*
X148070000Y-78870000D01*
X148070000Y-78870000D02*
X146110000Y-78870000D01*
%TO.C,C16*%
X115120000Y-88570000D02*
X118880000Y-88570000D01*
X115120000Y-90530000D02*
X115120000Y-88570000D01*
X118880000Y-88570000D02*
X118880000Y-90530000D01*
X118880000Y-90530000D02*
X115120000Y-90530000D01*
%TO.C,C18*%
X115120000Y-105470000D02*
X118880000Y-105470000D01*
X115120000Y-107430000D02*
X115120000Y-105470000D01*
X118880000Y-105470000D02*
X118880000Y-107430000D01*
X118880000Y-107430000D02*
X115120000Y-107430000D01*
%TO.C,C15*%
X120020000Y-79120000D02*
X121980000Y-79120000D01*
X120020000Y-82880000D02*
X120020000Y-79120000D01*
X121980000Y-79120000D02*
X121980000Y-82880000D01*
X121980000Y-82880000D02*
X120020000Y-82880000D01*
%TO.C,U3*%
X148650000Y-81350000D02*
X148650000Y-90150000D01*
X148650000Y-90150000D02*
X155850000Y-90150000D01*
X155850000Y-81350000D02*
X148650000Y-81350000D01*
X155850000Y-90150000D02*
X155850000Y-81350000D01*
%TO.C,C6*%
X160071192Y-87370000D02*
X162031192Y-87370000D01*
X160071192Y-91130000D02*
X160071192Y-87370000D01*
X162031192Y-87370000D02*
X162031192Y-91130000D01*
X162031192Y-91130000D02*
X160071192Y-91130000D01*
%TO.C,C9*%
X155913000Y-93870000D02*
X157873000Y-93870000D01*
X155913000Y-97630000D02*
X155913000Y-93870000D01*
X157873000Y-93870000D02*
X157873000Y-97630000D01*
X157873000Y-97630000D02*
X155913000Y-97630000D01*
%TO.C,K1*%
X150500000Y-123000000D02*
X175500000Y-123000000D01*
X150500000Y-129000000D02*
X150500000Y-123000000D01*
X175500000Y-123000000D02*
X175500000Y-129000000D01*
X175500000Y-129000000D02*
X150500000Y-129000000D01*
%TO.C,R2*%
X123150000Y-107540000D02*
X126850000Y-107540000D01*
X123150000Y-109440000D02*
X123150000Y-107540000D01*
X126850000Y-107540000D02*
X126850000Y-109440000D01*
X126850000Y-109440000D02*
X123150000Y-109440000D01*
%TO.C,R18*%
X166550000Y-104900000D02*
X168450000Y-104900000D01*
X166550000Y-108600000D02*
X166550000Y-104900000D01*
X168450000Y-104900000D02*
X168450000Y-108600000D01*
X168450000Y-108600000D02*
X166550000Y-108600000D01*
%TO.C,C2*%
X152110000Y-75110000D02*
X154070000Y-75110000D01*
X152110000Y-78870000D02*
X152110000Y-75110000D01*
X154070000Y-75110000D02*
X154070000Y-78870000D01*
X154070000Y-78870000D02*
X152110000Y-78870000D01*
%TO.C,F1*%
X115350000Y-122550000D02*
X150150000Y-122550000D01*
X115350000Y-128950000D02*
X115350000Y-122550000D01*
X150150000Y-122550000D02*
X150150000Y-128950000D01*
X150150000Y-128950000D02*
X115350000Y-128950000D01*
%TO.C,R5*%
X123150000Y-102540000D02*
X126850000Y-102540000D01*
X123150000Y-104440000D02*
X123150000Y-102540000D01*
X126850000Y-102540000D02*
X126850000Y-104440000D01*
X126850000Y-104440000D02*
X123150000Y-104440000D01*
%TO.C,R19*%
X124049998Y-75150000D02*
X125949998Y-75150000D01*
X124049998Y-78850000D02*
X124049998Y-75150000D01*
X125949998Y-75150000D02*
X125949998Y-78850000D01*
X125949998Y-78850000D02*
X124049998Y-78850000D01*
%TO.C,C7*%
X156571192Y-87370000D02*
X158531192Y-87370000D01*
X156571192Y-91130000D02*
X156571192Y-87370000D01*
X158531192Y-87370000D02*
X158531192Y-91130000D01*
X158531192Y-91130000D02*
X156571192Y-91130000D01*
%TO.C,R13*%
X143240000Y-86040000D02*
X146940000Y-86040000D01*
X143240000Y-87940000D02*
X143240000Y-86040000D01*
X146940000Y-86040000D02*
X146940000Y-87940000D01*
X146940000Y-87940000D02*
X143240000Y-87940000D01*
%TO.C,R29*%
X126800002Y-85650000D02*
X128700002Y-85650000D01*
X126800002Y-89350000D02*
X126800002Y-85650000D01*
X128700002Y-85650000D02*
X128700002Y-89350000D01*
X128700002Y-89350000D02*
X126800002Y-89350000D01*
%TO.C,R16*%
X124300000Y-85650000D02*
X126200000Y-85650000D01*
X124300000Y-89350000D02*
X124300000Y-85650000D01*
X126200000Y-85650000D02*
X126200000Y-89350000D01*
X126200000Y-89350000D02*
X124300000Y-89350000D01*
%TO.C,U2*%
X128300000Y-101920000D02*
X128300000Y-111080000D01*
X128300000Y-111080000D02*
X135700000Y-111080000D01*
X135700000Y-101920000D02*
X128300000Y-101920000D01*
X135700000Y-111080000D02*
X135700000Y-101920000D01*
%TO.C,R1*%
X123150000Y-110040000D02*
X126850000Y-110040000D01*
X123150000Y-111940000D02*
X123150000Y-110040000D01*
X126850000Y-110040000D02*
X126850000Y-111940000D01*
X126850000Y-111940000D02*
X123150000Y-111940000D01*
%TO.C,C14*%
X107370000Y-80020000D02*
X111130000Y-80020000D01*
X107370000Y-81980000D02*
X107370000Y-80020000D01*
X111130000Y-80020000D02*
X111130000Y-81980000D01*
X111130000Y-81980000D02*
X107370000Y-81980000D01*
%TO.C,C12*%
X149110000Y-75110000D02*
X151070000Y-75110000D01*
X149110000Y-78870000D02*
X149110000Y-75110000D01*
X151070000Y-75110000D02*
X151070000Y-78870000D01*
X151070000Y-78870000D02*
X149110000Y-78870000D01*
%TO.C,Q1*%
X162000000Y-106300000D02*
X165500000Y-106300000D01*
X162000000Y-111700000D02*
X162000000Y-106300000D01*
X165500000Y-106300000D02*
X165500000Y-111700000D01*
X165500000Y-111700000D02*
X162000000Y-111700000D01*
%TO.C,U4*%
X168160000Y-83250000D02*
X168160000Y-103850000D01*
X168160000Y-103850000D02*
X178920000Y-103850000D01*
X178920000Y-83250000D02*
X168160000Y-83250000D01*
X178920000Y-103850000D02*
X178920000Y-83250000D01*
%TO.C,R30*%
X126140004Y-80150000D02*
X128040004Y-80150000D01*
X126140004Y-83850000D02*
X126140004Y-80150000D01*
X128040004Y-80150000D02*
X128040004Y-83850000D01*
X128040004Y-83850000D02*
X126140004Y-83850000D01*
%TD*%
M02*
