%TF.GenerationSoftware,KiCad,Pcbnew,8.0.3*%
%TF.CreationDate,2024-06-29T17:40:48+07:00*%
%TF.ProjectId,solder-reflow,736f6c64-6572-42d7-9265-666c6f772e6b,rev?*%
%TF.SameCoordinates,Original*%
%TF.FileFunction,Soldermask,Bot*%
%TF.FilePolarity,Negative*%
%FSLAX46Y46*%
G04 Gerber Fmt 4.6, Leading zero omitted, Abs format (unit mm)*
G04 Created by KiCad (PCBNEW 8.0.3) date 2024-06-29 17:40:48*
%MOMM*%
%LPD*%
G01*
G04 APERTURE LIST*
G04 Aperture macros list*
%AMRoundRect*
0 Rectangle with rounded corners*
0 $1 Rounding radius*
0 $2 $3 $4 $5 $6 $7 $8 $9 X,Y pos of 4 corners*
0 Add a 4 corners polygon primitive as box body*
4,1,4,$2,$3,$4,$5,$6,$7,$8,$9,$2,$3,0*
0 Add four circle primitives for the rounded corners*
1,1,$1+$1,$2,$3*
1,1,$1+$1,$4,$5*
1,1,$1+$1,$6,$7*
1,1,$1+$1,$8,$9*
0 Add four rect primitives between the rounded corners*
20,1,$1+$1,$2,$3,$4,$5,0*
20,1,$1+$1,$4,$5,$6,$7,0*
20,1,$1+$1,$6,$7,$8,$9,0*
20,1,$1+$1,$8,$9,$2,$3,0*%
G04 Aperture macros list end*
%ADD10C,5.600000*%
%ADD11R,1.500000X1.500000*%
%ADD12C,1.500000*%
%ADD13R,1.700000X1.700000*%
%ADD14C,1.700000*%
%ADD15C,3.500000*%
%ADD16R,2.600000X2.600000*%
%ADD17C,2.600000*%
%ADD18O,1.700000X1.700000*%
%ADD19R,1.300000X1.300000*%
%ADD20C,1.300000*%
%ADD21R,3.500000X3.500000*%
%ADD22RoundRect,0.750000X-1.000000X0.750000X-1.000000X-0.750000X1.000000X-0.750000X1.000000X0.750000X0*%
%ADD23RoundRect,0.875000X-0.875000X0.875000X-0.875000X-0.875000X0.875000X-0.875000X0.875000X0.875000X0*%
%ADD24RoundRect,0.250000X-0.450000X0.350000X-0.450000X-0.350000X0.450000X-0.350000X0.450000X0.350000X0*%
%ADD25RoundRect,0.250000X0.337500X0.475000X-0.337500X0.475000X-0.337500X-0.475000X0.337500X-0.475000X0*%
%ADD26RoundRect,0.250000X-0.350000X-0.450000X0.350000X-0.450000X0.350000X0.450000X-0.350000X0.450000X0*%
%ADD27RoundRect,0.250000X0.450000X-0.350000X0.450000X0.350000X-0.450000X0.350000X-0.450000X-0.350000X0*%
%ADD28RoundRect,0.150000X0.825000X0.150000X-0.825000X0.150000X-0.825000X-0.150000X0.825000X-0.150000X0*%
%ADD29RoundRect,0.250000X0.350000X0.450000X-0.350000X0.450000X-0.350000X-0.450000X0.350000X-0.450000X0*%
%ADD30RoundRect,0.250000X0.475000X-0.337500X0.475000X0.337500X-0.475000X0.337500X-0.475000X-0.337500X0*%
%ADD31RoundRect,0.225000X0.225000X0.375000X-0.225000X0.375000X-0.225000X-0.375000X0.225000X-0.375000X0*%
%ADD32RoundRect,0.250000X-0.475000X0.337500X-0.475000X-0.337500X0.475000X-0.337500X0.475000X0.337500X0*%
%ADD33RoundRect,0.375000X0.375000X-0.625000X0.375000X0.625000X-0.375000X0.625000X-0.375000X-0.625000X0*%
%ADD34RoundRect,0.500000X1.400000X-0.500000X1.400000X0.500000X-1.400000X0.500000X-1.400000X-0.500000X0*%
%ADD35RoundRect,0.102000X-0.754000X-0.754000X0.754000X-0.754000X0.754000X0.754000X-0.754000X0.754000X0*%
%ADD36C,1.712000*%
%ADD37C,2.300000*%
%ADD38RoundRect,0.200000X0.200000X-0.750000X0.200000X0.750000X-0.200000X0.750000X-0.200000X-0.750000X0*%
%ADD39O,3.500000X3.500000*%
%ADD40R,1.905000X2.000000*%
%ADD41O,1.905000X2.000000*%
G04 APERTURE END LIST*
D10*
%TO.C,H1*%
X107250000Y-89500000D03*
%TD*%
D11*
%TO.C,U1*%
X126750000Y-116500000D03*
D12*
X129290000Y-116500000D03*
X131830000Y-116500000D03*
%TD*%
D13*
%TO.C,J6*%
X112000000Y-74500000D03*
D14*
X114500000Y-74500000D03*
X114500000Y-72500000D03*
X112000000Y-72500000D03*
D15*
X107230000Y-69790000D03*
X119270000Y-69790000D03*
%TD*%
D16*
%TO.C,J3*%
X182000000Y-97000000D03*
D17*
X182000000Y-92000000D03*
%TD*%
D10*
%TO.C,H2*%
X172500000Y-79000000D03*
%TD*%
D13*
%TO.C,J13*%
X142425000Y-117275000D03*
D18*
X142425000Y-114735000D03*
X144965000Y-117275000D03*
X144965000Y-114735000D03*
X147505000Y-117275000D03*
X147505000Y-114735000D03*
X150045000Y-117275000D03*
X150045000Y-114735000D03*
X152585000Y-117275000D03*
X152585000Y-114735000D03*
%TD*%
D10*
%TO.C,H5*%
X108250000Y-125500000D03*
%TD*%
D13*
%TO.C,J11*%
X139125000Y-101975000D03*
D18*
X141665000Y-101975000D03*
X144205000Y-101975000D03*
X146745000Y-101975000D03*
X149285000Y-101975000D03*
X151825000Y-101975000D03*
X154365000Y-101975000D03*
X156905000Y-101975000D03*
%TD*%
D19*
%TO.C,TH1*%
X166500000Y-103500000D03*
D20*
X163960000Y-103500000D03*
%TD*%
D13*
%TO.C,J8*%
X166500000Y-76075000D03*
D18*
X166500000Y-78615000D03*
X166500000Y-81155000D03*
X166500000Y-83695000D03*
X166500000Y-86235000D03*
X166500000Y-88775000D03*
X166500000Y-91315000D03*
X166500000Y-93855000D03*
X166500000Y-96395000D03*
X166500000Y-98935000D03*
%TD*%
D16*
%TO.C,J1*%
X182000000Y-125500000D03*
D17*
X182000000Y-120500000D03*
X182000000Y-115500000D03*
%TD*%
D16*
%TO.C,J9*%
X182000000Y-86000000D03*
D17*
X182000000Y-81000000D03*
%TD*%
D13*
%TO.C,J2*%
X142790000Y-96990000D03*
D18*
X145330000Y-96990000D03*
X147870000Y-96990000D03*
X150410000Y-96990000D03*
%TD*%
D16*
%TO.C,J5*%
X182000000Y-108194674D03*
D17*
X182000000Y-103194674D03*
%TD*%
D13*
%TO.C,J7*%
X137575000Y-107000000D03*
D18*
X140115000Y-107000000D03*
X142655000Y-107000000D03*
X145195000Y-107000000D03*
X147735000Y-107000000D03*
X150275000Y-107000000D03*
X152815000Y-107000000D03*
X155355000Y-107000000D03*
X157895000Y-107000000D03*
X160435000Y-107000000D03*
%TD*%
D10*
%TO.C,H4*%
X169500000Y-117000000D03*
%TD*%
D21*
%TO.C,J4*%
X179000000Y-74750000D03*
D22*
X179000000Y-68750000D03*
D23*
X174300000Y-71750000D03*
%TD*%
D13*
%TO.C,J10*%
X130000000Y-76075000D03*
D18*
X130000000Y-78615000D03*
X130000000Y-81155000D03*
X130000000Y-83695000D03*
X130000000Y-86235000D03*
X130000000Y-88775000D03*
X130000000Y-91315000D03*
X130000000Y-93855000D03*
X130000000Y-96395000D03*
X130000000Y-98935000D03*
%TD*%
D24*
%TO.C,R31*%
X127500000Y-76000000D03*
X127500000Y-78000000D03*
%TD*%
D25*
%TO.C,C19*%
X118037500Y-114900000D03*
X115962500Y-114900000D03*
%TD*%
D26*
%TO.C,R6*%
X124000000Y-100990000D03*
X126000000Y-100990000D03*
%TD*%
D27*
%TO.C,R14*%
X170500000Y-107750000D03*
X170500000Y-105750000D03*
%TD*%
D28*
%TO.C,U7*%
X140475000Y-81055000D03*
X140475000Y-82325000D03*
X140475000Y-83595000D03*
X140475000Y-84865000D03*
X140475000Y-86135000D03*
X140475000Y-87405000D03*
X140475000Y-88675000D03*
X140475000Y-89945000D03*
X135525000Y-89945000D03*
X135525000Y-88675000D03*
X135525000Y-87405000D03*
X135525000Y-86135000D03*
X135525000Y-84865000D03*
X135525000Y-83595000D03*
X135525000Y-82325000D03*
X135525000Y-81055000D03*
%TD*%
D24*
%TO.C,R32*%
X127500000Y-95000000D03*
X127500000Y-97000000D03*
%TD*%
D29*
%TO.C,R12*%
X146090000Y-89490000D03*
X144090000Y-89490000D03*
%TD*%
D30*
%TO.C,C8*%
X159893000Y-96787500D03*
X159893000Y-94712500D03*
%TD*%
D24*
%TO.C,R26*%
X157250000Y-83250000D03*
X157250000Y-85250000D03*
%TD*%
%TO.C,R27*%
X159750000Y-83250000D03*
X159750000Y-85250000D03*
%TD*%
%TO.C,R17*%
X124590002Y-81000000D03*
X124590002Y-83000000D03*
%TD*%
D29*
%TO.C,R4*%
X126000000Y-105990000D03*
X124000000Y-105990000D03*
%TD*%
D30*
%TO.C,C11*%
X141590000Y-78027500D03*
X141590000Y-75952500D03*
%TD*%
D27*
%TO.C,R15*%
X173500000Y-107750000D03*
X173500000Y-105750000D03*
%TD*%
%TO.C,R28*%
X144290910Y-78000000D03*
X144290910Y-76000000D03*
%TD*%
D25*
%TO.C,C17*%
X118037500Y-98000000D03*
X115962500Y-98000000D03*
%TD*%
D31*
%TO.C,D1*%
X171400000Y-110750000D03*
X168100000Y-110750000D03*
%TD*%
D24*
%TO.C,R20*%
X124999998Y-95000000D03*
X124999998Y-97000000D03*
%TD*%
D30*
%TO.C,C13*%
X147090000Y-78027500D03*
X147090000Y-75952500D03*
%TD*%
D25*
%TO.C,C16*%
X118037500Y-89550000D03*
X115962500Y-89550000D03*
%TD*%
%TO.C,C18*%
X118037500Y-106450000D03*
X115962500Y-106450000D03*
%TD*%
D32*
%TO.C,C15*%
X121000000Y-79962500D03*
X121000000Y-82037500D03*
%TD*%
D33*
%TO.C,U3*%
X154550000Y-88900000D03*
X152250000Y-88900000D03*
D34*
X152250000Y-82600000D03*
D33*
X149950000Y-88900000D03*
%TD*%
D32*
%TO.C,C6*%
X161051192Y-88212500D03*
X161051192Y-90287500D03*
%TD*%
%TO.C,C9*%
X156893000Y-94712500D03*
X156893000Y-96787500D03*
%TD*%
D35*
%TO.C,K1*%
X152840000Y-127400000D03*
D36*
X160460000Y-127400000D03*
X170620000Y-127400000D03*
X173160000Y-127400000D03*
%TD*%
D29*
%TO.C,R2*%
X126000000Y-108490000D03*
X124000000Y-108490000D03*
%TD*%
D27*
%TO.C,R18*%
X167500000Y-107750000D03*
X167500000Y-105750000D03*
%TD*%
D30*
%TO.C,C2*%
X153090000Y-78027500D03*
X153090000Y-75952500D03*
%TD*%
D37*
%TO.C,F1*%
X148250000Y-125750000D03*
X143650000Y-125750000D03*
X121850000Y-125750000D03*
X117250000Y-125750000D03*
%TD*%
D29*
%TO.C,R5*%
X126000000Y-103490000D03*
X124000000Y-103490000D03*
%TD*%
D24*
%TO.C,R19*%
X124999998Y-76000000D03*
X124999998Y-78000000D03*
%TD*%
D32*
%TO.C,C7*%
X157551192Y-88212500D03*
X157551192Y-90287500D03*
%TD*%
D29*
%TO.C,R13*%
X146090000Y-86990000D03*
X144090000Y-86990000D03*
%TD*%
D24*
%TO.C,R29*%
X127750002Y-86500000D03*
X127750002Y-88500000D03*
%TD*%
%TO.C,R16*%
X125250000Y-86500000D03*
X125250000Y-88500000D03*
%TD*%
D28*
%TO.C,U2*%
X134475000Y-102690000D03*
X134475000Y-103960000D03*
X134475000Y-105230000D03*
X134475000Y-106500000D03*
X134475000Y-107770000D03*
X134475000Y-109040000D03*
X134475000Y-110310000D03*
X129525000Y-110310000D03*
X129525000Y-109040000D03*
X129525000Y-107770000D03*
X129525000Y-106500000D03*
X129525000Y-105230000D03*
X129525000Y-103960000D03*
X129525000Y-102690000D03*
%TD*%
D29*
%TO.C,R1*%
X126000000Y-110990000D03*
X124000000Y-110990000D03*
%TD*%
D25*
%TO.C,C14*%
X110287500Y-81000000D03*
X108212500Y-81000000D03*
%TD*%
D30*
%TO.C,C12*%
X150090000Y-78027500D03*
X150090000Y-75952500D03*
%TD*%
D38*
%TO.C,Q1*%
X164700000Y-110500000D03*
X162800000Y-110500000D03*
X163750000Y-107500000D03*
%TD*%
D39*
%TO.C,U4*%
X173540000Y-100300000D03*
D40*
X171000000Y-84500000D03*
D41*
X173540000Y-84500000D03*
X176080000Y-84500000D03*
%TD*%
D24*
%TO.C,R30*%
X127090004Y-81000000D03*
X127090004Y-83000000D03*
%TD*%
M02*
