%TF.GenerationSoftware,KiCad,Pcbnew,8.0.3*%
%TF.CreationDate,2024-06-29T17:40:47+07:00*%
%TF.ProjectId,solder-reflow,736f6c64-6572-42d7-9265-666c6f772e6b,rev?*%
%TF.SameCoordinates,Original*%
%TF.FileFunction,Paste,Bot*%
%TF.FilePolarity,Positive*%
%FSLAX46Y46*%
G04 Gerber Fmt 4.6, Leading zero omitted, Abs format (unit mm)*
G04 Created by KiCad (PCBNEW 8.0.3) date 2024-06-29 17:40:47*
%MOMM*%
%LPD*%
G01*
G04 APERTURE LIST*
G04 Aperture macros list*
%AMRoundRect*
0 Rectangle with rounded corners*
0 $1 Rounding radius*
0 $2 $3 $4 $5 $6 $7 $8 $9 X,Y pos of 4 corners*
0 Add a 4 corners polygon primitive as box body*
4,1,4,$2,$3,$4,$5,$6,$7,$8,$9,$2,$3,0*
0 Add four circle primitives for the rounded corners*
1,1,$1+$1,$2,$3*
1,1,$1+$1,$4,$5*
1,1,$1+$1,$6,$7*
1,1,$1+$1,$8,$9*
0 Add four rect primitives between the rounded corners*
20,1,$1+$1,$2,$3,$4,$5,0*
20,1,$1+$1,$4,$5,$6,$7,0*
20,1,$1+$1,$6,$7,$8,$9,0*
20,1,$1+$1,$8,$9,$2,$3,0*%
G04 Aperture macros list end*
%ADD10RoundRect,0.250000X-0.450000X0.350000X-0.450000X-0.350000X0.450000X-0.350000X0.450000X0.350000X0*%
%ADD11RoundRect,0.250000X0.337500X0.475000X-0.337500X0.475000X-0.337500X-0.475000X0.337500X-0.475000X0*%
%ADD12RoundRect,0.250000X-0.350000X-0.450000X0.350000X-0.450000X0.350000X0.450000X-0.350000X0.450000X0*%
%ADD13RoundRect,0.250000X0.450000X-0.350000X0.450000X0.350000X-0.450000X0.350000X-0.450000X-0.350000X0*%
%ADD14RoundRect,0.150000X0.825000X0.150000X-0.825000X0.150000X-0.825000X-0.150000X0.825000X-0.150000X0*%
%ADD15RoundRect,0.250000X0.350000X0.450000X-0.350000X0.450000X-0.350000X-0.450000X0.350000X-0.450000X0*%
%ADD16RoundRect,0.250000X0.475000X-0.337500X0.475000X0.337500X-0.475000X0.337500X-0.475000X-0.337500X0*%
%ADD17RoundRect,0.225000X0.225000X0.375000X-0.225000X0.375000X-0.225000X-0.375000X0.225000X-0.375000X0*%
%ADD18RoundRect,0.250000X-0.475000X0.337500X-0.475000X-0.337500X0.475000X-0.337500X0.475000X0.337500X0*%
%ADD19RoundRect,0.375000X0.375000X-0.625000X0.375000X0.625000X-0.375000X0.625000X-0.375000X-0.625000X0*%
%ADD20RoundRect,0.500000X1.400000X-0.500000X1.400000X0.500000X-1.400000X0.500000X-1.400000X-0.500000X0*%
%ADD21RoundRect,0.200000X0.200000X-0.750000X0.200000X0.750000X-0.200000X0.750000X-0.200000X-0.750000X0*%
G04 APERTURE END LIST*
D10*
%TO.C,R31*%
X127500000Y-76000000D03*
X127500000Y-78000000D03*
%TD*%
D11*
%TO.C,C19*%
X118037500Y-114900000D03*
X115962500Y-114900000D03*
%TD*%
D12*
%TO.C,R6*%
X124000000Y-100990000D03*
X126000000Y-100990000D03*
%TD*%
D13*
%TO.C,R14*%
X170500000Y-107750000D03*
X170500000Y-105750000D03*
%TD*%
D14*
%TO.C,U7*%
X140475000Y-81055000D03*
X140475000Y-82325000D03*
X140475000Y-83595000D03*
X140475000Y-84865000D03*
X140475000Y-86135000D03*
X140475000Y-87405000D03*
X140475000Y-88675000D03*
X140475000Y-89945000D03*
X135525000Y-89945000D03*
X135525000Y-88675000D03*
X135525000Y-87405000D03*
X135525000Y-86135000D03*
X135525000Y-84865000D03*
X135525000Y-83595000D03*
X135525000Y-82325000D03*
X135525000Y-81055000D03*
%TD*%
D10*
%TO.C,R32*%
X127500000Y-95000000D03*
X127500000Y-97000000D03*
%TD*%
D15*
%TO.C,R12*%
X146090000Y-89490000D03*
X144090000Y-89490000D03*
%TD*%
D16*
%TO.C,C8*%
X159893000Y-96787500D03*
X159893000Y-94712500D03*
%TD*%
D10*
%TO.C,R26*%
X157250000Y-83250000D03*
X157250000Y-85250000D03*
%TD*%
%TO.C,R27*%
X159750000Y-83250000D03*
X159750000Y-85250000D03*
%TD*%
%TO.C,R17*%
X124590002Y-81000000D03*
X124590002Y-83000000D03*
%TD*%
D15*
%TO.C,R4*%
X126000000Y-105990000D03*
X124000000Y-105990000D03*
%TD*%
D16*
%TO.C,C11*%
X141590000Y-78027500D03*
X141590000Y-75952500D03*
%TD*%
D13*
%TO.C,R15*%
X173500000Y-107750000D03*
X173500000Y-105750000D03*
%TD*%
%TO.C,R28*%
X144290910Y-78000000D03*
X144290910Y-76000000D03*
%TD*%
D11*
%TO.C,C17*%
X118037500Y-98000000D03*
X115962500Y-98000000D03*
%TD*%
D17*
%TO.C,D1*%
X171400000Y-110750000D03*
X168100000Y-110750000D03*
%TD*%
D10*
%TO.C,R20*%
X124999998Y-95000000D03*
X124999998Y-97000000D03*
%TD*%
D16*
%TO.C,C13*%
X147090000Y-78027500D03*
X147090000Y-75952500D03*
%TD*%
D11*
%TO.C,C16*%
X118037500Y-89550000D03*
X115962500Y-89550000D03*
%TD*%
%TO.C,C18*%
X118037500Y-106450000D03*
X115962500Y-106450000D03*
%TD*%
D18*
%TO.C,C15*%
X121000000Y-79962500D03*
X121000000Y-82037500D03*
%TD*%
D19*
%TO.C,U3*%
X154550000Y-88900000D03*
X152250000Y-88900000D03*
D20*
X152250000Y-82600000D03*
D19*
X149950000Y-88900000D03*
%TD*%
D18*
%TO.C,C6*%
X161051192Y-88212500D03*
X161051192Y-90287500D03*
%TD*%
%TO.C,C9*%
X156893000Y-94712500D03*
X156893000Y-96787500D03*
%TD*%
D15*
%TO.C,R2*%
X126000000Y-108490000D03*
X124000000Y-108490000D03*
%TD*%
D13*
%TO.C,R18*%
X167500000Y-107750000D03*
X167500000Y-105750000D03*
%TD*%
D16*
%TO.C,C2*%
X153090000Y-78027500D03*
X153090000Y-75952500D03*
%TD*%
D15*
%TO.C,R5*%
X126000000Y-103490000D03*
X124000000Y-103490000D03*
%TD*%
D10*
%TO.C,R19*%
X124999998Y-76000000D03*
X124999998Y-78000000D03*
%TD*%
D18*
%TO.C,C7*%
X157551192Y-88212500D03*
X157551192Y-90287500D03*
%TD*%
D15*
%TO.C,R13*%
X146090000Y-86990000D03*
X144090000Y-86990000D03*
%TD*%
D10*
%TO.C,R29*%
X127750002Y-86500000D03*
X127750002Y-88500000D03*
%TD*%
%TO.C,R16*%
X125250000Y-86500000D03*
X125250000Y-88500000D03*
%TD*%
D14*
%TO.C,U2*%
X134475000Y-102690000D03*
X134475000Y-103960000D03*
X134475000Y-105230000D03*
X134475000Y-106500000D03*
X134475000Y-107770000D03*
X134475000Y-109040000D03*
X134475000Y-110310000D03*
X129525000Y-110310000D03*
X129525000Y-109040000D03*
X129525000Y-107770000D03*
X129525000Y-106500000D03*
X129525000Y-105230000D03*
X129525000Y-103960000D03*
X129525000Y-102690000D03*
%TD*%
D15*
%TO.C,R1*%
X126000000Y-110990000D03*
X124000000Y-110990000D03*
%TD*%
D11*
%TO.C,C14*%
X110287500Y-81000000D03*
X108212500Y-81000000D03*
%TD*%
D16*
%TO.C,C12*%
X150090000Y-78027500D03*
X150090000Y-75952500D03*
%TD*%
D21*
%TO.C,Q1*%
X164700000Y-110500000D03*
X162800000Y-110500000D03*
X163750000Y-107500000D03*
%TD*%
D10*
%TO.C,R30*%
X127090004Y-81000000D03*
X127090004Y-83000000D03*
%TD*%
M02*
