%TF.GenerationSoftware,KiCad,Pcbnew,8.0.3*%
%TF.CreationDate,2024-06-29T17:40:49+07:00*%
%TF.ProjectId,solder-reflow,736f6c64-6572-42d7-9265-666c6f772e6b,rev?*%
%TF.SameCoordinates,Original*%
%TF.FileFunction,Other,User*%
%FSLAX46Y46*%
G04 Gerber Fmt 4.6, Leading zero omitted, Abs format (unit mm)*
G04 Created by KiCad (PCBNEW 8.0.3) date 2024-06-29 17:40:49*
%MOMM*%
%LPD*%
G01*
G04 APERTURE LIST*
%ADD10C,0.050000*%
G04 APERTURE END LIST*
D10*
%TO.C,D8*%
X155380000Y-94550000D02*
X157620000Y-94550000D01*
X155380000Y-99450000D02*
X155380000Y-94550000D01*
X157620000Y-94550000D02*
X157620000Y-99450000D01*
X157620000Y-99450000D02*
X155380000Y-99450000D01*
%TO.C,R9*%
X123650000Y-106050000D02*
X127350000Y-106050000D01*
X123650000Y-107950000D02*
X123650000Y-106050000D01*
X127350000Y-106050000D02*
X127350000Y-107950000D01*
X127350000Y-107950000D02*
X123650000Y-107950000D01*
%TO.C,H1*%
X110300000Y-89500000D02*
G75*
G02*
X104200000Y-89500000I-3050000J0D01*
G01*
X104200000Y-89500000D02*
G75*
G02*
X110300000Y-89500000I3050000J0D01*
G01*
%TO.C,R23*%
X169100000Y-87650000D02*
X171000000Y-87650000D01*
X169100000Y-91350000D02*
X169100000Y-87650000D01*
X171000000Y-87650000D02*
X171000000Y-91350000D01*
X171000000Y-91350000D02*
X169100000Y-91350000D01*
%TO.C,U1*%
X125740000Y-113770000D02*
X125740000Y-118510000D01*
X125740000Y-113770000D02*
X132840000Y-113770000D01*
X132840000Y-118510000D02*
X125740000Y-118510000D01*
X132840000Y-118510000D02*
X132840000Y-113770000D01*
%TO.C,U6*%
X122840000Y-52500000D02*
X122840000Y-74190000D01*
X122840000Y-52500000D02*
X171340000Y-52500000D01*
X122840000Y-74190000D02*
X137340000Y-74190000D01*
X137340000Y-93990000D02*
X137340000Y-74190000D01*
X137340000Y-93990000D02*
X156840000Y-93990000D01*
X156840000Y-74190000D02*
X156840000Y-93990000D01*
X156840000Y-74190000D02*
X171340000Y-74190000D01*
X171340000Y-52500000D02*
X171340000Y-74190000D01*
%TO.C,D3*%
X158470000Y-76040000D02*
X160710000Y-76040000D01*
X158470000Y-80940000D02*
X158470000Y-76040000D01*
X160710000Y-76040000D02*
X160710000Y-80940000D01*
X160710000Y-80940000D02*
X158470000Y-80940000D01*
%TO.C,RA1*%
X123650000Y-108550000D02*
X127350000Y-108550000D01*
X123650000Y-110450000D02*
X123650000Y-108550000D01*
X127350000Y-108550000D02*
X127350000Y-110450000D01*
X127350000Y-110450000D02*
X123650000Y-110450000D01*
%TO.C,J6*%
X104980000Y-58990000D02*
X104980000Y-76490000D01*
X104980000Y-76490000D02*
X121520000Y-76490000D01*
X121520000Y-58990000D02*
X104980000Y-58990000D01*
X121520000Y-76490000D02*
X121520000Y-58990000D01*
%TO.C,R25*%
X175100000Y-87650000D02*
X177000000Y-87650000D01*
X175100000Y-91350000D02*
X175100000Y-87650000D01*
X177000000Y-87650000D02*
X177000000Y-91350000D01*
X177000000Y-91350000D02*
X175100000Y-91350000D01*
%TO.C,J3*%
X177500000Y-89000000D02*
X177500000Y-100000000D01*
X177500000Y-100000000D02*
X187500000Y-100000000D01*
X187500000Y-89000000D02*
X177500000Y-89000000D01*
X187500000Y-100000000D02*
X187500000Y-89000000D01*
%TO.C,R10*%
X122650000Y-93050000D02*
X126350000Y-93050000D01*
X122650000Y-94950000D02*
X122650000Y-93050000D01*
X126350000Y-93050000D02*
X126350000Y-94950000D01*
X126350000Y-94950000D02*
X122650000Y-94950000D01*
%TO.C,SW2*%
X104250000Y-77750000D02*
X104250000Y-84250000D01*
X104250000Y-77750000D02*
X114250000Y-77750000D01*
X104250000Y-84250000D02*
X114250000Y-84250000D01*
X114250000Y-84250000D02*
X114250000Y-77750000D01*
%TO.C,H2*%
X175550000Y-79000000D02*
G75*
G02*
X169450000Y-79000000I-3050000J0D01*
G01*
X169450000Y-79000000D02*
G75*
G02*
X175550000Y-79000000I3050000J0D01*
G01*
%TO.C,Q3*%
X122800000Y-88250000D02*
X128200000Y-88250000D01*
X122800000Y-91750000D02*
X122800000Y-88250000D01*
X128200000Y-88250000D02*
X128200000Y-91750000D01*
X128200000Y-91750000D02*
X122800000Y-91750000D01*
%TO.C,C10*%
X123620000Y-75020000D02*
X127380000Y-75020000D01*
X123620000Y-76980000D02*
X123620000Y-75020000D01*
X127380000Y-75020000D02*
X127380000Y-76980000D01*
X127380000Y-76980000D02*
X123620000Y-76980000D01*
%TO.C,SW5*%
X112000000Y-94750000D02*
X112000000Y-101250000D01*
X112000000Y-94750000D02*
X122000000Y-94750000D01*
X112000000Y-101250000D02*
X122000000Y-101250000D01*
X122000000Y-101250000D02*
X122000000Y-94750000D01*
%TO.C,Q4*%
X122800000Y-95750000D02*
X128200000Y-95750000D01*
X122800000Y-99250000D02*
X122800000Y-95750000D01*
X128200000Y-95750000D02*
X128200000Y-99250000D01*
X128200000Y-99250000D02*
X122800000Y-99250000D01*
%TO.C,SW7*%
X112000000Y-111650000D02*
X112000000Y-118150000D01*
X112000000Y-111650000D02*
X122000000Y-111650000D01*
X112000000Y-118150000D02*
X122000000Y-118150000D01*
X122000000Y-118150000D02*
X122000000Y-111650000D01*
%TO.C,C3*%
X133770000Y-103120000D02*
X135730000Y-103120000D01*
X133770000Y-106880000D02*
X133770000Y-103120000D01*
X135730000Y-103120000D02*
X135730000Y-106880000D01*
X135730000Y-106880000D02*
X133770000Y-106880000D01*
%TO.C,J13*%
X140625000Y-112925000D02*
X140625000Y-119075000D01*
X140625000Y-119075000D02*
X154375000Y-119075000D01*
X154375000Y-112925000D02*
X140625000Y-112925000D01*
X154375000Y-119075000D02*
X154375000Y-112925000D01*
%TO.C,C1*%
X130770000Y-103120000D02*
X132730000Y-103120000D01*
X130770000Y-106880000D02*
X130770000Y-103120000D01*
X132730000Y-103120000D02*
X132730000Y-106880000D01*
X132730000Y-106880000D02*
X130770000Y-106880000D01*
%TO.C,H5*%
X111300000Y-125500000D02*
G75*
G02*
X105200000Y-125500000I-3050000J0D01*
G01*
X105200000Y-125500000D02*
G75*
G02*
X111300000Y-125500000I3050000J0D01*
G01*
%TO.C,J11*%
X137325000Y-100225000D02*
X158675000Y-100225000D01*
X137325000Y-103775000D02*
X137325000Y-100225000D01*
X158675000Y-100225000D02*
X158675000Y-103775000D01*
X158675000Y-103775000D02*
X137325000Y-103775000D01*
%TO.C,TH1*%
X162700000Y-102600000D02*
X162690000Y-112640000D01*
X162700000Y-102600000D02*
X167800000Y-102600000D01*
X167770000Y-112640000D02*
X162690000Y-112640000D01*
X167770000Y-112640000D02*
X167800000Y-102600000D01*
%TO.C,SW6*%
X112000000Y-103200000D02*
X112000000Y-109700000D01*
X112000000Y-103200000D02*
X122000000Y-103200000D01*
X112000000Y-109700000D02*
X122000000Y-109700000D01*
X122000000Y-109700000D02*
X122000000Y-103200000D01*
%TO.C,R3*%
X123650000Y-101050000D02*
X127350000Y-101050000D01*
X123650000Y-102950000D02*
X123650000Y-101050000D01*
X127350000Y-101050000D02*
X127350000Y-102950000D01*
X127350000Y-102950000D02*
X123650000Y-102950000D01*
%TO.C,RB1*%
X123650000Y-111050000D02*
X127350000Y-111050000D01*
X123650000Y-112950000D02*
X123650000Y-111050000D01*
X127350000Y-111050000D02*
X127350000Y-112950000D01*
X127350000Y-112950000D02*
X123650000Y-112950000D01*
%TO.C,R22*%
X158640000Y-82640000D02*
X160540000Y-82640000D01*
X158640000Y-86340000D02*
X158640000Y-82640000D01*
X160540000Y-82640000D02*
X160540000Y-86340000D01*
X160540000Y-86340000D02*
X158640000Y-86340000D01*
%TO.C,J8*%
X164700000Y-74275000D02*
X164700000Y-100725000D01*
X164700000Y-100725000D02*
X168300000Y-100725000D01*
X168300000Y-74275000D02*
X164700000Y-74275000D01*
X168300000Y-100725000D02*
X168300000Y-74275000D01*
%TO.C,J1*%
X177500000Y-112500000D02*
X177500000Y-128500000D01*
X177500000Y-128500000D02*
X187500000Y-128500000D01*
X187500000Y-112500000D02*
X177500000Y-112500000D01*
X187500000Y-128500000D02*
X187500000Y-112500000D01*
%TO.C,J9*%
X177500000Y-78000000D02*
X177500000Y-89000000D01*
X177500000Y-89000000D02*
X187500000Y-89000000D01*
X187500000Y-78000000D02*
X177500000Y-78000000D01*
X187500000Y-89000000D02*
X187500000Y-78000000D01*
%TO.C,SW4*%
X112000000Y-86300000D02*
X112000000Y-92800000D01*
X112000000Y-86300000D02*
X122000000Y-86300000D01*
X112000000Y-92800000D02*
X122000000Y-92800000D01*
X122000000Y-92800000D02*
X122000000Y-86300000D01*
%TO.C,R7*%
X124149998Y-85050000D02*
X127849998Y-85050000D01*
X124149998Y-86950000D02*
X124149998Y-85050000D01*
X127849998Y-85050000D02*
X127849998Y-86950000D01*
X127849998Y-86950000D02*
X124149998Y-86950000D01*
%TO.C,D2*%
X162805000Y-113810000D02*
X165045000Y-113810000D01*
X162805000Y-118710000D02*
X162805000Y-113810000D01*
X165045000Y-113810000D02*
X165045000Y-118710000D01*
X165045000Y-118710000D02*
X162805000Y-118710000D01*
%TO.C,J2*%
X140990000Y-95190000D02*
X140990000Y-98790000D01*
X140990000Y-98790000D02*
X152190000Y-98790000D01*
X152190000Y-95190000D02*
X140990000Y-95190000D01*
X152190000Y-98790000D02*
X152190000Y-95190000D01*
%TO.C,D7*%
X158970000Y-88540000D02*
X161210000Y-88540000D01*
X158970000Y-93440000D02*
X158970000Y-88540000D01*
X161210000Y-88540000D02*
X161210000Y-93440000D01*
X161210000Y-93440000D02*
X158970000Y-93440000D01*
%TO.C,R8*%
X123650000Y-103550000D02*
X127350000Y-103550000D01*
X123650000Y-105450000D02*
X123650000Y-103550000D01*
X127350000Y-103550000D02*
X127350000Y-105450000D01*
X127350000Y-105450000D02*
X123650000Y-105450000D01*
%TO.C,J5*%
X177500000Y-100194674D02*
X177500000Y-111194674D01*
X177500000Y-111194674D02*
X187500000Y-111194674D01*
X187500000Y-100194674D02*
X177500000Y-100194674D01*
X187500000Y-111194674D02*
X187500000Y-100194674D01*
%TO.C,J7*%
X135775000Y-105200000D02*
X135775000Y-108800000D01*
X135775000Y-108800000D02*
X162225000Y-108800000D01*
X162225000Y-105200000D02*
X135775000Y-105200000D01*
X162225000Y-108800000D02*
X162225000Y-105200000D01*
%TO.C,H4*%
X172550000Y-117000000D02*
G75*
G02*
X166450000Y-117000000I-3050000J0D01*
G01*
X166450000Y-117000000D02*
G75*
G02*
X172550000Y-117000000I3050000J0D01*
G01*
%TO.C,SW3*%
X116000000Y-77750000D02*
X116000000Y-84250000D01*
X116000000Y-77750000D02*
X126000000Y-77750000D01*
X116000000Y-84250000D02*
X126000000Y-84250000D01*
X126000000Y-84250000D02*
X126000000Y-77750000D01*
%TO.C,Q2*%
X169050000Y-91800000D02*
X172550000Y-91800000D01*
X169050000Y-97200000D02*
X169050000Y-91800000D01*
X172550000Y-91800000D02*
X172550000Y-97200000D01*
X172550000Y-97200000D02*
X169050000Y-97200000D01*
%TO.C,J4*%
X172250000Y-69750000D02*
X174250000Y-69750000D01*
X172250000Y-73750000D02*
X172250000Y-69750000D01*
X174250000Y-60750000D02*
X183750000Y-60750000D01*
X174250000Y-69750000D02*
X174250000Y-60750000D01*
X174250000Y-73750000D02*
X172250000Y-73750000D01*
X174250000Y-75750000D02*
X174250000Y-73750000D01*
X177000000Y-75750000D02*
X174250000Y-75750000D01*
X177000000Y-76750000D02*
X177000000Y-75750000D01*
X181000000Y-75750000D02*
X181000000Y-76750000D01*
X181000000Y-76750000D02*
X177000000Y-76750000D01*
X183500000Y-75750000D02*
X181000000Y-75750000D01*
X183500000Y-75750000D02*
X183750000Y-75750000D01*
X183750000Y-75750000D02*
X183750000Y-60750000D01*
%TO.C,D4*%
X174650000Y-92400000D02*
X176950000Y-92400000D01*
X174650000Y-97100000D02*
X174650000Y-92400000D01*
X174650000Y-97100000D02*
X176950000Y-97100000D01*
X176950000Y-92400000D02*
X176950000Y-97100000D01*
%TO.C,R24*%
X172050000Y-87650000D02*
X173950000Y-87650000D01*
X172050000Y-91350000D02*
X172050000Y-87650000D01*
X173950000Y-87650000D02*
X173950000Y-91350000D01*
X173950000Y-91350000D02*
X172050000Y-91350000D01*
%TO.C,J10*%
X128200000Y-74275000D02*
X128200000Y-100725000D01*
X128200000Y-100725000D02*
X131800000Y-100725000D01*
X131800000Y-74275000D02*
X128200000Y-74275000D01*
X131800000Y-100725000D02*
X131800000Y-74275000D01*
%TO.C,D5*%
X159395000Y-113800000D02*
X161635000Y-113800000D01*
X159395000Y-118700000D02*
X159395000Y-113800000D01*
X161635000Y-113800000D02*
X161635000Y-118700000D01*
X161635000Y-118700000D02*
X159395000Y-118700000D01*
%TD*%
M02*
