%TF.GenerationSoftware,KiCad,Pcbnew,8.0.3*%
%TF.CreationDate,2024-06-29T17:40:48+07:00*%
%TF.ProjectId,solder-reflow,736f6c64-6572-42d7-9265-666c6f772e6b,rev?*%
%TF.SameCoordinates,Original*%
%TF.FileFunction,Soldermask,Top*%
%TF.FilePolarity,Negative*%
%FSLAX46Y46*%
G04 Gerber Fmt 4.6, Leading zero omitted, Abs format (unit mm)*
G04 Created by KiCad (PCBNEW 8.0.3) date 2024-06-29 17:40:48*
%MOMM*%
%LPD*%
G01*
G04 APERTURE LIST*
G04 Aperture macros list*
%AMRoundRect*
0 Rectangle with rounded corners*
0 $1 Rounding radius*
0 $2 $3 $4 $5 $6 $7 $8 $9 X,Y pos of 4 corners*
0 Add a 4 corners polygon primitive as box body*
4,1,4,$2,$3,$4,$5,$6,$7,$8,$9,$2,$3,0*
0 Add four circle primitives for the rounded corners*
1,1,$1+$1,$2,$3*
1,1,$1+$1,$4,$5*
1,1,$1+$1,$6,$7*
1,1,$1+$1,$8,$9*
0 Add four rect primitives between the rounded corners*
20,1,$1+$1,$2,$3,$4,$5,0*
20,1,$1+$1,$4,$5,$6,$7,0*
20,1,$1+$1,$6,$7,$8,$9,0*
20,1,$1+$1,$8,$9,$2,$3,0*%
G04 Aperture macros list end*
%ADD10RoundRect,0.250001X-0.624999X0.462499X-0.624999X-0.462499X0.624999X-0.462499X0.624999X0.462499X0*%
%ADD11RoundRect,0.250000X0.350000X0.450000X-0.350000X0.450000X-0.350000X-0.450000X0.350000X-0.450000X0*%
%ADD12C,5.600000*%
%ADD13RoundRect,0.250000X0.450000X-0.350000X0.450000X0.350000X-0.450000X0.350000X-0.450000X-0.350000X0*%
%ADD14R,1.500000X1.500000*%
%ADD15C,1.500000*%
%ADD16R,1.500000X0.900000*%
%ADD17R,0.900000X1.500000*%
%ADD18C,0.900000*%
%ADD19R,3.800000X3.800000*%
%ADD20RoundRect,0.250000X-0.350000X-0.450000X0.350000X-0.450000X0.350000X0.450000X-0.350000X0.450000X0*%
%ADD21R,1.700000X1.700000*%
%ADD22C,1.700000*%
%ADD23C,3.500000*%
%ADD24RoundRect,0.250000X-0.450000X0.350000X-0.450000X-0.350000X0.450000X-0.350000X0.450000X0.350000X0*%
%ADD25R,2.600000X2.600000*%
%ADD26C,2.600000*%
%ADD27R,1.550000X1.300000*%
%ADD28RoundRect,0.200000X-0.750000X-0.200000X0.750000X-0.200000X0.750000X0.200000X-0.750000X0.200000X0*%
%ADD29RoundRect,0.250000X-0.337500X-0.475000X0.337500X-0.475000X0.337500X0.475000X-0.337500X0.475000X0*%
%ADD30RoundRect,0.250000X0.475000X-0.337500X0.475000X0.337500X-0.475000X0.337500X-0.475000X-0.337500X0*%
%ADD31O,1.700000X1.700000*%
%ADD32R,1.300000X1.300000*%
%ADD33C,1.300000*%
%ADD34RoundRect,0.200000X0.200000X-0.750000X0.200000X0.750000X-0.200000X0.750000X-0.200000X-0.750000X0*%
%ADD35R,3.500000X3.500000*%
%ADD36RoundRect,0.750000X-1.000000X0.750000X-1.000000X-0.750000X1.000000X-0.750000X1.000000X0.750000X0*%
%ADD37RoundRect,0.875000X-0.875000X0.875000X-0.875000X-0.875000X0.875000X-0.875000X0.875000X0.875000X0*%
%ADD38RoundRect,0.225000X0.375000X-0.225000X0.375000X0.225000X-0.375000X0.225000X-0.375000X-0.225000X0*%
%ADD39RoundRect,0.250001X0.624999X-0.462499X0.624999X0.462499X-0.624999X0.462499X-0.624999X-0.462499X0*%
%ADD40RoundRect,0.102000X-0.754000X-0.754000X0.754000X-0.754000X0.754000X0.754000X-0.754000X0.754000X0*%
%ADD41C,1.712000*%
%ADD42C,2.300000*%
%ADD43O,3.500000X3.500000*%
%ADD44R,1.905000X2.000000*%
%ADD45O,1.905000X2.000000*%
G04 APERTURE END LIST*
D10*
%TO.C,D8*%
X156500000Y-95512500D03*
X156500000Y-98487500D03*
%TD*%
D11*
%TO.C,R9*%
X126500000Y-107000000D03*
X124500000Y-107000000D03*
%TD*%
D12*
%TO.C,H1*%
X107250000Y-89500000D03*
%TD*%
D13*
%TO.C,R23*%
X170050000Y-90500000D03*
X170050000Y-88500000D03*
%TD*%
D14*
%TO.C,U1*%
X126750000Y-116500000D03*
D15*
X129290000Y-116500000D03*
X131830000Y-116500000D03*
%TD*%
D16*
%TO.C,U6*%
X138340000Y-75240000D03*
X138340000Y-76510000D03*
X138340000Y-77780000D03*
X138340000Y-79050000D03*
X138340000Y-80320000D03*
X138340000Y-81590000D03*
X138340000Y-82860000D03*
X138340000Y-84130000D03*
X138340000Y-85400000D03*
X138340000Y-86670000D03*
X138340000Y-87940000D03*
X138340000Y-89210000D03*
X138340000Y-90480000D03*
X138340000Y-91750000D03*
D17*
X141380000Y-93000000D03*
X142650000Y-93000000D03*
X143920000Y-93000000D03*
X145190000Y-93000000D03*
X146460000Y-93000000D03*
X147730000Y-93000000D03*
X149000000Y-93000000D03*
X150270000Y-93000000D03*
X151540000Y-93000000D03*
X152810000Y-93000000D03*
D16*
X155840000Y-91750000D03*
X155840000Y-90480000D03*
X155840000Y-89210000D03*
X155840000Y-87940000D03*
X155840000Y-86670000D03*
X155840000Y-85400000D03*
X155840000Y-84130000D03*
X155840000Y-82860000D03*
X155840000Y-81590000D03*
X155840000Y-80320000D03*
X155840000Y-79050000D03*
X155840000Y-77780000D03*
X155840000Y-76510000D03*
X155840000Y-75240000D03*
D18*
X144190000Y-82260000D03*
X144190000Y-83660000D03*
X144890000Y-81560000D03*
X144890000Y-82960000D03*
X144890000Y-84360000D03*
X145565000Y-82260000D03*
X145565000Y-83660000D03*
D19*
X145590000Y-82960000D03*
D18*
X146290000Y-81560000D03*
X146290000Y-82960000D03*
X146290000Y-84360000D03*
X146990000Y-82260000D03*
X146990000Y-83660000D03*
%TD*%
D10*
%TO.C,D3*%
X159590000Y-77002500D03*
X159590000Y-79977500D03*
%TD*%
D20*
%TO.C,RA1*%
X124500000Y-109500000D03*
X126500000Y-109500000D03*
%TD*%
D21*
%TO.C,J6*%
X112000000Y-74500000D03*
D22*
X114500000Y-74500000D03*
X114500000Y-72500000D03*
X112000000Y-72500000D03*
D23*
X107230000Y-69790000D03*
X119270000Y-69790000D03*
%TD*%
D24*
%TO.C,R25*%
X176050000Y-88500000D03*
X176050000Y-90500000D03*
%TD*%
D25*
%TO.C,J3*%
X182000000Y-97000000D03*
D26*
X182000000Y-92000000D03*
%TD*%
D11*
%TO.C,R10*%
X125500000Y-94000000D03*
X123500000Y-94000000D03*
%TD*%
D27*
%TO.C,SW2*%
X105275000Y-78750000D03*
X113225000Y-78750000D03*
X105275000Y-83250000D03*
X113225000Y-83250000D03*
%TD*%
D12*
%TO.C,H2*%
X172500000Y-79000000D03*
%TD*%
D28*
%TO.C,Q3*%
X124000000Y-89050000D03*
X124000000Y-90950000D03*
X127000000Y-90000000D03*
%TD*%
D29*
%TO.C,C10*%
X124462500Y-76000000D03*
X126537500Y-76000000D03*
%TD*%
D27*
%TO.C,SW5*%
X113025000Y-95750000D03*
X120975000Y-95750000D03*
X113025000Y-100250000D03*
X120975000Y-100250000D03*
%TD*%
D28*
%TO.C,Q4*%
X124000000Y-96550000D03*
X124000000Y-98450000D03*
X127000000Y-97500000D03*
%TD*%
D27*
%TO.C,SW7*%
X113025000Y-112650000D03*
X120975000Y-112650000D03*
X113025000Y-117150000D03*
X120975000Y-117150000D03*
%TD*%
D30*
%TO.C,C3*%
X134750000Y-106037500D03*
X134750000Y-103962500D03*
%TD*%
D21*
%TO.C,J13*%
X142425000Y-117275000D03*
D31*
X142425000Y-114735000D03*
X144965000Y-117275000D03*
X144965000Y-114735000D03*
X147505000Y-117275000D03*
X147505000Y-114735000D03*
X150045000Y-117275000D03*
X150045000Y-114735000D03*
X152585000Y-117275000D03*
X152585000Y-114735000D03*
%TD*%
D30*
%TO.C,C1*%
X131750000Y-106037500D03*
X131750000Y-103962500D03*
%TD*%
D12*
%TO.C,H5*%
X108250000Y-125500000D03*
%TD*%
D21*
%TO.C,J11*%
X139125000Y-101975000D03*
D31*
X141665000Y-101975000D03*
X144205000Y-101975000D03*
X146745000Y-101975000D03*
X149285000Y-101975000D03*
X151825000Y-101975000D03*
X154365000Y-101975000D03*
X156905000Y-101975000D03*
%TD*%
D32*
%TO.C,TH1*%
X166500000Y-103500000D03*
D33*
X163960000Y-103500000D03*
%TD*%
D27*
%TO.C,SW6*%
X113025000Y-104200000D03*
X120975000Y-104200000D03*
X113025000Y-108700000D03*
X120975000Y-108700000D03*
%TD*%
D11*
%TO.C,R3*%
X126500000Y-102000000D03*
X124500000Y-102000000D03*
%TD*%
D20*
%TO.C,RB1*%
X124500000Y-112000000D03*
X126500000Y-112000000D03*
%TD*%
D24*
%TO.C,R22*%
X159590000Y-83490000D03*
X159590000Y-85490000D03*
%TD*%
D21*
%TO.C,J8*%
X166500000Y-76075000D03*
D31*
X166500000Y-78615000D03*
X166500000Y-81155000D03*
X166500000Y-83695000D03*
X166500000Y-86235000D03*
X166500000Y-88775000D03*
X166500000Y-91315000D03*
X166500000Y-93855000D03*
X166500000Y-96395000D03*
X166500000Y-98935000D03*
%TD*%
D25*
%TO.C,J1*%
X182000000Y-125500000D03*
D26*
X182000000Y-120500000D03*
X182000000Y-115500000D03*
%TD*%
D25*
%TO.C,J9*%
X182000000Y-86000000D03*
D26*
X182000000Y-81000000D03*
%TD*%
D27*
%TO.C,SW4*%
X113025000Y-87300000D03*
X120975000Y-87300000D03*
X113025000Y-91800000D03*
X120975000Y-91800000D03*
%TD*%
D11*
%TO.C,R7*%
X126999998Y-86000000D03*
X124999998Y-86000000D03*
%TD*%
D10*
%TO.C,D2*%
X163925000Y-114772500D03*
X163925000Y-117747500D03*
%TD*%
D21*
%TO.C,J2*%
X142790000Y-96990000D03*
D31*
X145330000Y-96990000D03*
X147870000Y-96990000D03*
X150410000Y-96990000D03*
%TD*%
D10*
%TO.C,D7*%
X160090000Y-89502500D03*
X160090000Y-92477500D03*
%TD*%
D11*
%TO.C,R8*%
X126500000Y-104500000D03*
X124500000Y-104500000D03*
%TD*%
D25*
%TO.C,J5*%
X182000000Y-108194674D03*
D26*
X182000000Y-103194674D03*
%TD*%
D21*
%TO.C,J7*%
X137575000Y-107000000D03*
D31*
X140115000Y-107000000D03*
X142655000Y-107000000D03*
X145195000Y-107000000D03*
X147735000Y-107000000D03*
X150275000Y-107000000D03*
X152815000Y-107000000D03*
X155355000Y-107000000D03*
X157895000Y-107000000D03*
X160435000Y-107000000D03*
%TD*%
D12*
%TO.C,H4*%
X169500000Y-117000000D03*
%TD*%
D27*
%TO.C,SW3*%
X117025000Y-78750000D03*
X124975000Y-78750000D03*
X117025000Y-83250000D03*
X124975000Y-83250000D03*
%TD*%
D34*
%TO.C,Q2*%
X169850000Y-96000000D03*
X171750000Y-96000000D03*
X170800000Y-93000000D03*
%TD*%
D35*
%TO.C,J4*%
X179000000Y-74750000D03*
D36*
X179000000Y-68750000D03*
D37*
X174300000Y-71750000D03*
%TD*%
D38*
%TO.C,D4*%
X175800000Y-96400000D03*
X175800000Y-93100000D03*
%TD*%
D13*
%TO.C,R24*%
X173000000Y-90500000D03*
X173000000Y-88500000D03*
%TD*%
D21*
%TO.C,J10*%
X130000000Y-76075000D03*
D31*
X130000000Y-78615000D03*
X130000000Y-81155000D03*
X130000000Y-83695000D03*
X130000000Y-86235000D03*
X130000000Y-88775000D03*
X130000000Y-91315000D03*
X130000000Y-93855000D03*
X130000000Y-96395000D03*
X130000000Y-98935000D03*
%TD*%
D39*
%TO.C,D5*%
X160515000Y-117737500D03*
X160515000Y-114762500D03*
%TD*%
D40*
%TO.C,K1*%
X152840000Y-127400000D03*
D41*
X160460000Y-127400000D03*
X170620000Y-127400000D03*
X173160000Y-127400000D03*
%TD*%
D42*
%TO.C,F1*%
X148250000Y-125750000D03*
X143650000Y-125750000D03*
X121850000Y-125750000D03*
X117250000Y-125750000D03*
%TD*%
D43*
%TO.C,U4*%
X173540000Y-100300000D03*
D44*
X171000000Y-84500000D03*
D45*
X173540000Y-84500000D03*
X176080000Y-84500000D03*
%TD*%
M02*
