%TF.GenerationSoftware,KiCad,Pcbnew,8.0.3*%
%TF.CreationDate,2024-06-29T17:40:49+07:00*%
%TF.ProjectId,solder-reflow,736f6c64-6572-42d7-9265-666c6f772e6b,rev?*%
%TF.SameCoordinates,Original*%
%TF.FileFunction,Other,Comment*%
%FSLAX46Y46*%
G04 Gerber Fmt 4.6, Leading zero omitted, Abs format (unit mm)*
G04 Created by KiCad (PCBNEW 8.0.3) date 2024-06-29 17:40:49*
%MOMM*%
%LPD*%
G01*
G04 APERTURE LIST*
%ADD10C,0.100000*%
%ADD11C,0.150000*%
G04 APERTURE END LIST*
D10*
X130151904Y-68841109D02*
X129913809Y-68841109D01*
X129913809Y-68841109D02*
X129890000Y-69079204D01*
X129890000Y-69079204D02*
X129913809Y-69055395D01*
X129913809Y-69055395D02*
X129961428Y-69031585D01*
X129961428Y-69031585D02*
X130080476Y-69031585D01*
X130080476Y-69031585D02*
X130128095Y-69055395D01*
X130128095Y-69055395D02*
X130151904Y-69079204D01*
X130151904Y-69079204D02*
X130175714Y-69126823D01*
X130175714Y-69126823D02*
X130175714Y-69245871D01*
X130175714Y-69245871D02*
X130151904Y-69293490D01*
X130151904Y-69293490D02*
X130128095Y-69317300D01*
X130128095Y-69317300D02*
X130080476Y-69341109D01*
X130080476Y-69341109D02*
X129961428Y-69341109D01*
X129961428Y-69341109D02*
X129913809Y-69317300D01*
X129913809Y-69317300D02*
X129890000Y-69293490D01*
X130770951Y-69341109D02*
X130770951Y-69007776D01*
X130770951Y-69055395D02*
X130794761Y-69031585D01*
X130794761Y-69031585D02*
X130842380Y-69007776D01*
X130842380Y-69007776D02*
X130913808Y-69007776D01*
X130913808Y-69007776D02*
X130961427Y-69031585D01*
X130961427Y-69031585D02*
X130985237Y-69079204D01*
X130985237Y-69079204D02*
X130985237Y-69341109D01*
X130985237Y-69079204D02*
X131009046Y-69031585D01*
X131009046Y-69031585D02*
X131056665Y-69007776D01*
X131056665Y-69007776D02*
X131128094Y-69007776D01*
X131128094Y-69007776D02*
X131175713Y-69031585D01*
X131175713Y-69031585D02*
X131199523Y-69079204D01*
X131199523Y-69079204D02*
X131199523Y-69341109D01*
X131437618Y-69341109D02*
X131437618Y-69007776D01*
X131437618Y-69055395D02*
X131461428Y-69031585D01*
X131461428Y-69031585D02*
X131509047Y-69007776D01*
X131509047Y-69007776D02*
X131580475Y-69007776D01*
X131580475Y-69007776D02*
X131628094Y-69031585D01*
X131628094Y-69031585D02*
X131651904Y-69079204D01*
X131651904Y-69079204D02*
X131651904Y-69341109D01*
X131651904Y-69079204D02*
X131675713Y-69031585D01*
X131675713Y-69031585D02*
X131723332Y-69007776D01*
X131723332Y-69007776D02*
X131794761Y-69007776D01*
X131794761Y-69007776D02*
X131842380Y-69031585D01*
X131842380Y-69031585D02*
X131866190Y-69079204D01*
X131866190Y-69079204D02*
X131866190Y-69341109D01*
D11*
X144328095Y-70659104D02*
X144804285Y-70659104D01*
X144232857Y-70944819D02*
X144566190Y-69944819D01*
X144566190Y-69944819D02*
X144899523Y-70944819D01*
X145232857Y-70278152D02*
X145232857Y-70944819D01*
X145232857Y-70373390D02*
X145280476Y-70325771D01*
X145280476Y-70325771D02*
X145375714Y-70278152D01*
X145375714Y-70278152D02*
X145518571Y-70278152D01*
X145518571Y-70278152D02*
X145613809Y-70325771D01*
X145613809Y-70325771D02*
X145661428Y-70421009D01*
X145661428Y-70421009D02*
X145661428Y-70944819D01*
X145994762Y-70278152D02*
X146375714Y-70278152D01*
X146137619Y-69944819D02*
X146137619Y-70801961D01*
X146137619Y-70801961D02*
X146185238Y-70897200D01*
X146185238Y-70897200D02*
X146280476Y-70944819D01*
X146280476Y-70944819D02*
X146375714Y-70944819D01*
X147090000Y-70897200D02*
X146994762Y-70944819D01*
X146994762Y-70944819D02*
X146804286Y-70944819D01*
X146804286Y-70944819D02*
X146709048Y-70897200D01*
X146709048Y-70897200D02*
X146661429Y-70801961D01*
X146661429Y-70801961D02*
X146661429Y-70421009D01*
X146661429Y-70421009D02*
X146709048Y-70325771D01*
X146709048Y-70325771D02*
X146804286Y-70278152D01*
X146804286Y-70278152D02*
X146994762Y-70278152D01*
X146994762Y-70278152D02*
X147090000Y-70325771D01*
X147090000Y-70325771D02*
X147137619Y-70421009D01*
X147137619Y-70421009D02*
X147137619Y-70516247D01*
X147137619Y-70516247D02*
X146661429Y-70611485D01*
X147566191Y-70278152D02*
X147566191Y-70944819D01*
X147566191Y-70373390D02*
X147613810Y-70325771D01*
X147613810Y-70325771D02*
X147709048Y-70278152D01*
X147709048Y-70278152D02*
X147851905Y-70278152D01*
X147851905Y-70278152D02*
X147947143Y-70325771D01*
X147947143Y-70325771D02*
X147994762Y-70421009D01*
X147994762Y-70421009D02*
X147994762Y-70944819D01*
X148470953Y-70278152D02*
X148470953Y-70944819D01*
X148470953Y-70373390D02*
X148518572Y-70325771D01*
X148518572Y-70325771D02*
X148613810Y-70278152D01*
X148613810Y-70278152D02*
X148756667Y-70278152D01*
X148756667Y-70278152D02*
X148851905Y-70325771D01*
X148851905Y-70325771D02*
X148899524Y-70421009D01*
X148899524Y-70421009D02*
X148899524Y-70944819D01*
X149804286Y-70944819D02*
X149804286Y-70421009D01*
X149804286Y-70421009D02*
X149756667Y-70325771D01*
X149756667Y-70325771D02*
X149661429Y-70278152D01*
X149661429Y-70278152D02*
X149470953Y-70278152D01*
X149470953Y-70278152D02*
X149375715Y-70325771D01*
X149804286Y-70897200D02*
X149709048Y-70944819D01*
X149709048Y-70944819D02*
X149470953Y-70944819D01*
X149470953Y-70944819D02*
X149375715Y-70897200D01*
X149375715Y-70897200D02*
X149328096Y-70801961D01*
X149328096Y-70801961D02*
X149328096Y-70706723D01*
X149328096Y-70706723D02*
X149375715Y-70611485D01*
X149375715Y-70611485D02*
X149470953Y-70563866D01*
X149470953Y-70563866D02*
X149709048Y-70563866D01*
X149709048Y-70563866D02*
X149804286Y-70516247D01*
X141018571Y-64944819D02*
X141018571Y-63944819D01*
X141589999Y-64944819D02*
X141161428Y-64373390D01*
X141589999Y-63944819D02*
X141018571Y-64516247D01*
X142018571Y-64421009D02*
X142351904Y-64421009D01*
X142494761Y-64944819D02*
X142018571Y-64944819D01*
X142018571Y-64944819D02*
X142018571Y-63944819D01*
X142018571Y-63944819D02*
X142494761Y-63944819D01*
X142923333Y-64421009D02*
X143256666Y-64421009D01*
X143399523Y-64944819D02*
X142923333Y-64944819D01*
X142923333Y-64944819D02*
X142923333Y-63944819D01*
X142923333Y-63944819D02*
X143399523Y-63944819D01*
X143828095Y-64944819D02*
X143828095Y-63944819D01*
X143828095Y-63944819D02*
X144209047Y-63944819D01*
X144209047Y-63944819D02*
X144304285Y-63992438D01*
X144304285Y-63992438D02*
X144351904Y-64040057D01*
X144351904Y-64040057D02*
X144399523Y-64135295D01*
X144399523Y-64135295D02*
X144399523Y-64278152D01*
X144399523Y-64278152D02*
X144351904Y-64373390D01*
X144351904Y-64373390D02*
X144304285Y-64421009D01*
X144304285Y-64421009D02*
X144209047Y-64468628D01*
X144209047Y-64468628D02*
X143828095Y-64468628D01*
X144828095Y-64563866D02*
X145590000Y-64563866D01*
X146256666Y-63944819D02*
X146447142Y-63944819D01*
X146447142Y-63944819D02*
X146542380Y-63992438D01*
X146542380Y-63992438D02*
X146637618Y-64087676D01*
X146637618Y-64087676D02*
X146685237Y-64278152D01*
X146685237Y-64278152D02*
X146685237Y-64611485D01*
X146685237Y-64611485D02*
X146637618Y-64801961D01*
X146637618Y-64801961D02*
X146542380Y-64897200D01*
X146542380Y-64897200D02*
X146447142Y-64944819D01*
X146447142Y-64944819D02*
X146256666Y-64944819D01*
X146256666Y-64944819D02*
X146161428Y-64897200D01*
X146161428Y-64897200D02*
X146066190Y-64801961D01*
X146066190Y-64801961D02*
X146018571Y-64611485D01*
X146018571Y-64611485D02*
X146018571Y-64278152D01*
X146018571Y-64278152D02*
X146066190Y-64087676D01*
X146066190Y-64087676D02*
X146161428Y-63992438D01*
X146161428Y-63992438D02*
X146256666Y-63944819D01*
X147113809Y-63944819D02*
X147113809Y-64754342D01*
X147113809Y-64754342D02*
X147161428Y-64849580D01*
X147161428Y-64849580D02*
X147209047Y-64897200D01*
X147209047Y-64897200D02*
X147304285Y-64944819D01*
X147304285Y-64944819D02*
X147494761Y-64944819D01*
X147494761Y-64944819D02*
X147589999Y-64897200D01*
X147589999Y-64897200D02*
X147637618Y-64849580D01*
X147637618Y-64849580D02*
X147685237Y-64754342D01*
X147685237Y-64754342D02*
X147685237Y-63944819D01*
X148018571Y-63944819D02*
X148589999Y-63944819D01*
X148304285Y-64944819D02*
X148304285Y-63944819D01*
X149590000Y-63944819D02*
X150256666Y-63944819D01*
X150256666Y-63944819D02*
X149590000Y-64944819D01*
X149590000Y-64944819D02*
X150256666Y-64944819D01*
X150828095Y-63944819D02*
X151018571Y-63944819D01*
X151018571Y-63944819D02*
X151113809Y-63992438D01*
X151113809Y-63992438D02*
X151209047Y-64087676D01*
X151209047Y-64087676D02*
X151256666Y-64278152D01*
X151256666Y-64278152D02*
X151256666Y-64611485D01*
X151256666Y-64611485D02*
X151209047Y-64801961D01*
X151209047Y-64801961D02*
X151113809Y-64897200D01*
X151113809Y-64897200D02*
X151018571Y-64944819D01*
X151018571Y-64944819D02*
X150828095Y-64944819D01*
X150828095Y-64944819D02*
X150732857Y-64897200D01*
X150732857Y-64897200D02*
X150637619Y-64801961D01*
X150637619Y-64801961D02*
X150590000Y-64611485D01*
X150590000Y-64611485D02*
X150590000Y-64278152D01*
X150590000Y-64278152D02*
X150637619Y-64087676D01*
X150637619Y-64087676D02*
X150732857Y-63992438D01*
X150732857Y-63992438D02*
X150828095Y-63944819D01*
X151685238Y-64944819D02*
X151685238Y-63944819D01*
X151685238Y-63944819D02*
X152256666Y-64944819D01*
X152256666Y-64944819D02*
X152256666Y-63944819D01*
X152732857Y-64421009D02*
X153066190Y-64421009D01*
X153209047Y-64944819D02*
X152732857Y-64944819D01*
X152732857Y-64944819D02*
X152732857Y-63944819D01*
X152732857Y-63944819D02*
X153209047Y-63944819D01*
D10*
X154616109Y-60228095D02*
X154616109Y-60466190D01*
X154616109Y-60466190D02*
X154854204Y-60489999D01*
X154854204Y-60489999D02*
X154830395Y-60466190D01*
X154830395Y-60466190D02*
X154806585Y-60418571D01*
X154806585Y-60418571D02*
X154806585Y-60299523D01*
X154806585Y-60299523D02*
X154830395Y-60251904D01*
X154830395Y-60251904D02*
X154854204Y-60228095D01*
X154854204Y-60228095D02*
X154901823Y-60204285D01*
X154901823Y-60204285D02*
X155020871Y-60204285D01*
X155020871Y-60204285D02*
X155068490Y-60228095D01*
X155068490Y-60228095D02*
X155092300Y-60251904D01*
X155092300Y-60251904D02*
X155116109Y-60299523D01*
X155116109Y-60299523D02*
X155116109Y-60418571D01*
X155116109Y-60418571D02*
X155092300Y-60466190D01*
X155092300Y-60466190D02*
X155068490Y-60489999D01*
X155116109Y-59609048D02*
X154782776Y-59609048D01*
X154830395Y-59609048D02*
X154806585Y-59585238D01*
X154806585Y-59585238D02*
X154782776Y-59537619D01*
X154782776Y-59537619D02*
X154782776Y-59466191D01*
X154782776Y-59466191D02*
X154806585Y-59418572D01*
X154806585Y-59418572D02*
X154854204Y-59394762D01*
X154854204Y-59394762D02*
X155116109Y-59394762D01*
X154854204Y-59394762D02*
X154806585Y-59370953D01*
X154806585Y-59370953D02*
X154782776Y-59323334D01*
X154782776Y-59323334D02*
X154782776Y-59251905D01*
X154782776Y-59251905D02*
X154806585Y-59204286D01*
X154806585Y-59204286D02*
X154854204Y-59180476D01*
X154854204Y-59180476D02*
X155116109Y-59180476D01*
X155116109Y-58942381D02*
X154782776Y-58942381D01*
X154830395Y-58942381D02*
X154806585Y-58918571D01*
X154806585Y-58918571D02*
X154782776Y-58870952D01*
X154782776Y-58870952D02*
X154782776Y-58799524D01*
X154782776Y-58799524D02*
X154806585Y-58751905D01*
X154806585Y-58751905D02*
X154854204Y-58728095D01*
X154854204Y-58728095D02*
X155116109Y-58728095D01*
X154854204Y-58728095D02*
X154806585Y-58704286D01*
X154806585Y-58704286D02*
X154782776Y-58656667D01*
X154782776Y-58656667D02*
X154782776Y-58585238D01*
X154782776Y-58585238D02*
X154806585Y-58537619D01*
X154806585Y-58537619D02*
X154854204Y-58513809D01*
X154854204Y-58513809D02*
X155116109Y-58513809D01*
X162551904Y-68841109D02*
X162313809Y-68841109D01*
X162313809Y-68841109D02*
X162290000Y-69079204D01*
X162290000Y-69079204D02*
X162313809Y-69055395D01*
X162313809Y-69055395D02*
X162361428Y-69031585D01*
X162361428Y-69031585D02*
X162480476Y-69031585D01*
X162480476Y-69031585D02*
X162528095Y-69055395D01*
X162528095Y-69055395D02*
X162551904Y-69079204D01*
X162551904Y-69079204D02*
X162575714Y-69126823D01*
X162575714Y-69126823D02*
X162575714Y-69245871D01*
X162575714Y-69245871D02*
X162551904Y-69293490D01*
X162551904Y-69293490D02*
X162528095Y-69317300D01*
X162528095Y-69317300D02*
X162480476Y-69341109D01*
X162480476Y-69341109D02*
X162361428Y-69341109D01*
X162361428Y-69341109D02*
X162313809Y-69317300D01*
X162313809Y-69317300D02*
X162290000Y-69293490D01*
X163170951Y-69341109D02*
X163170951Y-69007776D01*
X163170951Y-69055395D02*
X163194761Y-69031585D01*
X163194761Y-69031585D02*
X163242380Y-69007776D01*
X163242380Y-69007776D02*
X163313808Y-69007776D01*
X163313808Y-69007776D02*
X163361427Y-69031585D01*
X163361427Y-69031585D02*
X163385237Y-69079204D01*
X163385237Y-69079204D02*
X163385237Y-69341109D01*
X163385237Y-69079204D02*
X163409046Y-69031585D01*
X163409046Y-69031585D02*
X163456665Y-69007776D01*
X163456665Y-69007776D02*
X163528094Y-69007776D01*
X163528094Y-69007776D02*
X163575713Y-69031585D01*
X163575713Y-69031585D02*
X163599523Y-69079204D01*
X163599523Y-69079204D02*
X163599523Y-69341109D01*
X163837618Y-69341109D02*
X163837618Y-69007776D01*
X163837618Y-69055395D02*
X163861428Y-69031585D01*
X163861428Y-69031585D02*
X163909047Y-69007776D01*
X163909047Y-69007776D02*
X163980475Y-69007776D01*
X163980475Y-69007776D02*
X164028094Y-69031585D01*
X164028094Y-69031585D02*
X164051904Y-69079204D01*
X164051904Y-69079204D02*
X164051904Y-69341109D01*
X164051904Y-69079204D02*
X164075713Y-69031585D01*
X164075713Y-69031585D02*
X164123332Y-69007776D01*
X164123332Y-69007776D02*
X164194761Y-69007776D01*
X164194761Y-69007776D02*
X164242380Y-69031585D01*
X164242380Y-69031585D02*
X164266190Y-69079204D01*
X164266190Y-69079204D02*
X164266190Y-69341109D01*
D11*
%TO.C,H1*%
X110050000Y-89500000D02*
G75*
G02*
X104450000Y-89500000I-2800000J0D01*
G01*
X104450000Y-89500000D02*
G75*
G02*
X110050000Y-89500000I2800000J0D01*
G01*
D10*
%TO.C,U6*%
X123150000Y-69615000D02*
X123350000Y-69415000D01*
X123150000Y-69615000D02*
X123350000Y-69815000D01*
X123150000Y-69615000D02*
X137890000Y-69615000D01*
X137890000Y-69615000D02*
X137690000Y-69415000D01*
X137890000Y-69615000D02*
X137690000Y-69815000D01*
X155490000Y-52810000D02*
X155290000Y-53010000D01*
X155490000Y-52810000D02*
X155690000Y-53010000D01*
X155490000Y-67490000D02*
X155290000Y-67290000D01*
X155490000Y-67490000D02*
X155490000Y-52810000D01*
X155490000Y-67490000D02*
X155690000Y-67290000D01*
X156290000Y-69615000D02*
X156490000Y-69415000D01*
X156290000Y-69615000D02*
X156490000Y-69815000D01*
X156290000Y-69615000D02*
X171030000Y-69615000D01*
X171030000Y-69615000D02*
X170830000Y-69415000D01*
X171030000Y-69615000D02*
X170830000Y-69815000D01*
D11*
%TO.C,H2*%
X175300000Y-79000000D02*
G75*
G02*
X169700000Y-79000000I-2800000J0D01*
G01*
X169700000Y-79000000D02*
G75*
G02*
X175300000Y-79000000I2800000J0D01*
G01*
%TO.C,H5*%
X111050000Y-125500000D02*
G75*
G02*
X105450000Y-125500000I-2800000J0D01*
G01*
X105450000Y-125500000D02*
G75*
G02*
X111050000Y-125500000I2800000J0D01*
G01*
%TO.C,H4*%
X172300000Y-117000000D02*
G75*
G02*
X166700000Y-117000000I-2800000J0D01*
G01*
X166700000Y-117000000D02*
G75*
G02*
X172300000Y-117000000I2800000J0D01*
G01*
%TD*%
M02*
