%TF.GenerationSoftware,KiCad,Pcbnew,8.0.3*%
%TF.CreationDate,2024-06-29T17:40:47+07:00*%
%TF.ProjectId,solder-reflow,736f6c64-6572-42d7-9265-666c6f772e6b,rev?*%
%TF.SameCoordinates,Original*%
%TF.FileFunction,Paste,Top*%
%TF.FilePolarity,Positive*%
%FSLAX46Y46*%
G04 Gerber Fmt 4.6, Leading zero omitted, Abs format (unit mm)*
G04 Created by KiCad (PCBNEW 8.0.3) date 2024-06-29 17:40:47*
%MOMM*%
%LPD*%
G01*
G04 APERTURE LIST*
G04 Aperture macros list*
%AMRoundRect*
0 Rectangle with rounded corners*
0 $1 Rounding radius*
0 $2 $3 $4 $5 $6 $7 $8 $9 X,Y pos of 4 corners*
0 Add a 4 corners polygon primitive as box body*
4,1,4,$2,$3,$4,$5,$6,$7,$8,$9,$2,$3,0*
0 Add four circle primitives for the rounded corners*
1,1,$1+$1,$2,$3*
1,1,$1+$1,$4,$5*
1,1,$1+$1,$6,$7*
1,1,$1+$1,$8,$9*
0 Add four rect primitives between the rounded corners*
20,1,$1+$1,$2,$3,$4,$5,0*
20,1,$1+$1,$4,$5,$6,$7,0*
20,1,$1+$1,$6,$7,$8,$9,0*
20,1,$1+$1,$8,$9,$2,$3,0*%
G04 Aperture macros list end*
%ADD10RoundRect,0.250001X-0.624999X0.462499X-0.624999X-0.462499X0.624999X-0.462499X0.624999X0.462499X0*%
%ADD11RoundRect,0.250000X0.350000X0.450000X-0.350000X0.450000X-0.350000X-0.450000X0.350000X-0.450000X0*%
%ADD12RoundRect,0.250000X0.450000X-0.350000X0.450000X0.350000X-0.450000X0.350000X-0.450000X-0.350000X0*%
%ADD13R,1.500000X0.900000*%
%ADD14R,0.900000X1.500000*%
%ADD15R,0.900000X0.900000*%
%ADD16RoundRect,0.250000X-0.350000X-0.450000X0.350000X-0.450000X0.350000X0.450000X-0.350000X0.450000X0*%
%ADD17RoundRect,0.250000X-0.450000X0.350000X-0.450000X-0.350000X0.450000X-0.350000X0.450000X0.350000X0*%
%ADD18R,1.550000X1.300000*%
%ADD19RoundRect,0.200000X-0.750000X-0.200000X0.750000X-0.200000X0.750000X0.200000X-0.750000X0.200000X0*%
%ADD20RoundRect,0.250000X-0.337500X-0.475000X0.337500X-0.475000X0.337500X0.475000X-0.337500X0.475000X0*%
%ADD21RoundRect,0.250000X0.475000X-0.337500X0.475000X0.337500X-0.475000X0.337500X-0.475000X-0.337500X0*%
%ADD22RoundRect,0.200000X0.200000X-0.750000X0.200000X0.750000X-0.200000X0.750000X-0.200000X-0.750000X0*%
%ADD23RoundRect,0.225000X0.375000X-0.225000X0.375000X0.225000X-0.375000X0.225000X-0.375000X-0.225000X0*%
%ADD24RoundRect,0.250001X0.624999X-0.462499X0.624999X0.462499X-0.624999X0.462499X-0.624999X-0.462499X0*%
G04 APERTURE END LIST*
D10*
%TO.C,D8*%
X156500000Y-95512500D03*
X156500000Y-98487500D03*
%TD*%
D11*
%TO.C,R9*%
X126500000Y-107000000D03*
X124500000Y-107000000D03*
%TD*%
D12*
%TO.C,R23*%
X170050000Y-90500000D03*
X170050000Y-88500000D03*
%TD*%
D13*
%TO.C,U6*%
X138340000Y-75240000D03*
X138340000Y-76510000D03*
X138340000Y-77780000D03*
X138340000Y-79050000D03*
X138340000Y-80320000D03*
X138340000Y-81590000D03*
X138340000Y-82860000D03*
X138340000Y-84130000D03*
X138340000Y-85400000D03*
X138340000Y-86670000D03*
X138340000Y-87940000D03*
X138340000Y-89210000D03*
X138340000Y-90480000D03*
X138340000Y-91750000D03*
D14*
X141380000Y-93000000D03*
X142650000Y-93000000D03*
X143920000Y-93000000D03*
X145190000Y-93000000D03*
X146460000Y-93000000D03*
X147730000Y-93000000D03*
X149000000Y-93000000D03*
X150270000Y-93000000D03*
X151540000Y-93000000D03*
X152810000Y-93000000D03*
D13*
X155840000Y-91750000D03*
X155840000Y-90480000D03*
X155840000Y-89210000D03*
X155840000Y-87940000D03*
X155840000Y-86670000D03*
X155840000Y-85400000D03*
X155840000Y-84130000D03*
X155840000Y-82860000D03*
X155840000Y-81590000D03*
X155840000Y-80320000D03*
X155840000Y-79050000D03*
X155840000Y-77780000D03*
X155840000Y-76510000D03*
X155840000Y-75240000D03*
D15*
X144190000Y-81560000D03*
X144190000Y-82960000D03*
X144190000Y-84360000D03*
X145590000Y-81560000D03*
X145590000Y-82960000D03*
X145590000Y-84360000D03*
X146990000Y-81560000D03*
X146990000Y-82960000D03*
X146990000Y-84360000D03*
%TD*%
D10*
%TO.C,D3*%
X159590000Y-77002500D03*
X159590000Y-79977500D03*
%TD*%
D16*
%TO.C,RA1*%
X124500000Y-109500000D03*
X126500000Y-109500000D03*
%TD*%
D17*
%TO.C,R25*%
X176050000Y-88500000D03*
X176050000Y-90500000D03*
%TD*%
D11*
%TO.C,R10*%
X125500000Y-94000000D03*
X123500000Y-94000000D03*
%TD*%
D18*
%TO.C,SW2*%
X105275000Y-78750000D03*
X113225000Y-78750000D03*
X105275000Y-83250000D03*
X113225000Y-83250000D03*
%TD*%
D19*
%TO.C,Q3*%
X124000000Y-89050000D03*
X124000000Y-90950000D03*
X127000000Y-90000000D03*
%TD*%
D20*
%TO.C,C10*%
X124462500Y-76000000D03*
X126537500Y-76000000D03*
%TD*%
D18*
%TO.C,SW5*%
X113025000Y-95750000D03*
X120975000Y-95750000D03*
X113025000Y-100250000D03*
X120975000Y-100250000D03*
%TD*%
D19*
%TO.C,Q4*%
X124000000Y-96550000D03*
X124000000Y-98450000D03*
X127000000Y-97500000D03*
%TD*%
D18*
%TO.C,SW7*%
X113025000Y-112650000D03*
X120975000Y-112650000D03*
X113025000Y-117150000D03*
X120975000Y-117150000D03*
%TD*%
D21*
%TO.C,C3*%
X134750000Y-106037500D03*
X134750000Y-103962500D03*
%TD*%
%TO.C,C1*%
X131750000Y-106037500D03*
X131750000Y-103962500D03*
%TD*%
D18*
%TO.C,SW6*%
X113025000Y-104200000D03*
X120975000Y-104200000D03*
X113025000Y-108700000D03*
X120975000Y-108700000D03*
%TD*%
D11*
%TO.C,R3*%
X126500000Y-102000000D03*
X124500000Y-102000000D03*
%TD*%
D16*
%TO.C,RB1*%
X124500000Y-112000000D03*
X126500000Y-112000000D03*
%TD*%
D17*
%TO.C,R22*%
X159590000Y-83490000D03*
X159590000Y-85490000D03*
%TD*%
D18*
%TO.C,SW4*%
X113025000Y-87300000D03*
X120975000Y-87300000D03*
X113025000Y-91800000D03*
X120975000Y-91800000D03*
%TD*%
D11*
%TO.C,R7*%
X126999998Y-86000000D03*
X124999998Y-86000000D03*
%TD*%
D10*
%TO.C,D2*%
X163925000Y-114772500D03*
X163925000Y-117747500D03*
%TD*%
%TO.C,D7*%
X160090000Y-89502500D03*
X160090000Y-92477500D03*
%TD*%
D11*
%TO.C,R8*%
X126500000Y-104500000D03*
X124500000Y-104500000D03*
%TD*%
D18*
%TO.C,SW3*%
X117025000Y-78750000D03*
X124975000Y-78750000D03*
X117025000Y-83250000D03*
X124975000Y-83250000D03*
%TD*%
D22*
%TO.C,Q2*%
X169850000Y-96000000D03*
X171750000Y-96000000D03*
X170800000Y-93000000D03*
%TD*%
D23*
%TO.C,D4*%
X175800000Y-96400000D03*
X175800000Y-93100000D03*
%TD*%
D12*
%TO.C,R24*%
X173000000Y-90500000D03*
X173000000Y-88500000D03*
%TD*%
D24*
%TO.C,D5*%
X160515000Y-117737500D03*
X160515000Y-114762500D03*
%TD*%
M02*
