%TF.GenerationSoftware,KiCad,Pcbnew,7.0.10*%
%TF.CreationDate,2024-03-07T19:54:16+07:00*%
%TF.ProjectId,solder-reflow,736f6c64-6572-42d7-9265-666c6f772e6b,rev?*%
%TF.SameCoordinates,Original*%
%TF.FileFunction,Other,User*%
%FSLAX46Y46*%
G04 Gerber Fmt 4.6, Leading zero omitted, Abs format (unit mm)*
G04 Created by KiCad (PCBNEW 7.0.10) date 2024-03-07 19:54:16*
%MOMM*%
%LPD*%
G01*
G04 APERTURE LIST*
%ADD10C,0.050000*%
G04 APERTURE END LIST*
D10*
%TO.C,R10*%
X109440000Y-69620000D02*
X109440000Y-72620000D01*
X109440000Y-72620000D02*
X121700000Y-72620000D01*
X121700000Y-69620000D02*
X109440000Y-69620000D01*
X121700000Y-72620000D02*
X121700000Y-69620000D01*
%TO.C,R21*%
X139666000Y-81812000D02*
X139666000Y-84812000D01*
X139666000Y-84812000D02*
X151926000Y-84812000D01*
X151926000Y-81812000D02*
X139666000Y-81812000D01*
X151926000Y-84812000D02*
X151926000Y-81812000D01*
%TO.C,R22*%
X166150000Y-90649329D02*
X166150000Y-87649329D01*
X166150000Y-87649329D02*
X153890000Y-87649329D01*
X153890000Y-90649329D02*
X166150000Y-90649329D01*
X153890000Y-87649329D02*
X153890000Y-90649329D01*
%TO.C,R2*%
X125515000Y-68350000D02*
X128515000Y-68350000D01*
X128515000Y-68350000D02*
X128515000Y-56090000D01*
X125515000Y-56090000D02*
X125515000Y-68350000D01*
X128515000Y-56090000D02*
X125515000Y-56090000D01*
%TO.C,TH1*%
X104080000Y-73675000D02*
X94040000Y-73645000D01*
X104080000Y-73675000D02*
X104080000Y-78755000D01*
X94040000Y-78745000D02*
X94040000Y-73645000D01*
X94040000Y-78745000D02*
X104080000Y-78755000D01*
%TO.C,H1*%
X98300000Y-53340000D02*
G75*
G03*
X92200000Y-53340000I-3050000J0D01*
G01*
X92200000Y-53340000D02*
G75*
G03*
X98300000Y-53340000I3050000J0D01*
G01*
%TO.C,U3*%
X110325000Y-56860000D02*
X110325000Y-67560000D01*
X110325000Y-67560000D02*
X120875000Y-67560000D01*
X120875000Y-56860000D02*
X110325000Y-56860000D01*
X120875000Y-67560000D02*
X120875000Y-56860000D01*
%TO.C,R16*%
X139705639Y-70365713D02*
X139705639Y-73365713D01*
X139705639Y-73365713D02*
X151965639Y-73365713D01*
X151965639Y-70365713D02*
X139705639Y-70365713D01*
X151965639Y-73365713D02*
X151965639Y-70365713D01*
%TO.C,R18*%
X153890000Y-84246000D02*
X153890000Y-87246000D01*
X153890000Y-87246000D02*
X166150000Y-87246000D01*
X166150000Y-84246000D02*
X153890000Y-84246000D01*
X166150000Y-87246000D02*
X166150000Y-84246000D01*
%TO.C,D2*%
X162383000Y-93778000D02*
X162383000Y-100278000D01*
X162383000Y-100278000D02*
X168833000Y-100278000D01*
X168833000Y-93778000D02*
X162383000Y-93778000D01*
X168833000Y-100278000D02*
X168833000Y-93778000D01*
%TO.C,C4*%
X137662000Y-72828000D02*
X137662000Y-70428000D01*
X137662000Y-70428000D02*
X130562000Y-70428000D01*
X130562000Y-72828000D02*
X137662000Y-72828000D01*
X130562000Y-70428000D02*
X130562000Y-72828000D01*
%TO.C,U5*%
X183484000Y-83390000D02*
X157384000Y-83390000D01*
X183484000Y-48690000D02*
X183484000Y-83390000D01*
X157384000Y-83390000D02*
X157384000Y-48690000D01*
X157384000Y-48690000D02*
X183484000Y-48690000D01*
%TO.C,J4*%
X186199500Y-47372000D02*
X195699500Y-47372000D01*
X186199500Y-56372000D02*
X186199500Y-47372000D01*
X184199500Y-56372000D02*
X186199500Y-56372000D01*
X186199500Y-60372000D02*
X184199500Y-60372000D01*
X184199500Y-60372000D02*
X184199500Y-56372000D01*
X195699500Y-62372000D02*
X195699500Y-47372000D01*
X195449500Y-62372000D02*
X195699500Y-62372000D01*
X195449500Y-62372000D02*
X192949500Y-62372000D01*
X192949500Y-62372000D02*
X192949500Y-63372000D01*
X188949500Y-62372000D02*
X186199500Y-62372000D01*
X186199500Y-62372000D02*
X186199500Y-60372000D01*
X192949500Y-63372000D02*
X188949500Y-63372000D01*
X188949500Y-63372000D02*
X188949500Y-62372000D01*
%TO.C,U2*%
X136980000Y-56870000D02*
X136980000Y-67570000D01*
X136980000Y-67570000D02*
X147530000Y-67570000D01*
X147530000Y-56870000D02*
X136980000Y-56870000D01*
X147530000Y-67570000D02*
X147530000Y-56870000D01*
%TO.C,R9*%
X106465000Y-68350000D02*
X109465000Y-68350000D01*
X109465000Y-68350000D02*
X109465000Y-56090000D01*
X106465000Y-56090000D02*
X106465000Y-68350000D01*
X109465000Y-56090000D02*
X106465000Y-56090000D01*
%TO.C,F1*%
X171328000Y-102210000D02*
X206128000Y-102210000D01*
X171328000Y-108610000D02*
X171328000Y-102210000D01*
X206128000Y-102210000D02*
X206128000Y-108610000D01*
X206128000Y-108610000D02*
X171328000Y-108610000D01*
%TO.C,R8*%
X105655000Y-56090000D02*
X102655000Y-56090000D01*
X102655000Y-56090000D02*
X102655000Y-68350000D01*
X105655000Y-68350000D02*
X105655000Y-56090000D01*
X102655000Y-68350000D02*
X105655000Y-68350000D01*
%TO.C,U1*%
X119120000Y-87460000D02*
X119120000Y-82720000D01*
X119120000Y-87460000D02*
X112020000Y-87460000D01*
X112020000Y-82720000D02*
X119120000Y-82720000D01*
X112020000Y-82720000D02*
X112020000Y-87460000D01*
%TO.C,R14*%
X190026000Y-88368000D02*
X190026000Y-85368000D01*
X190026000Y-85368000D02*
X177766000Y-85368000D01*
X177766000Y-88368000D02*
X190026000Y-88368000D01*
X177766000Y-85368000D02*
X177766000Y-88368000D01*
%TO.C,H2*%
X213870000Y-53340000D02*
G75*
G03*
X207770000Y-53340000I-3050000J0D01*
G01*
X207770000Y-53340000D02*
G75*
G03*
X213870000Y-53340000I3050000J0D01*
G01*
%TO.C,R15*%
X177766000Y-88416000D02*
X177766000Y-91416000D01*
X177766000Y-91416000D02*
X190026000Y-91416000D01*
X190026000Y-88416000D02*
X177766000Y-88416000D01*
X190026000Y-91416000D02*
X190026000Y-88416000D01*
%TO.C,D1*%
X173402000Y-91872000D02*
X173402000Y-95072000D01*
X173402000Y-95072000D02*
X186262000Y-95072000D01*
X186262000Y-91872000D02*
X173402000Y-91872000D01*
X186262000Y-95072000D02*
X186262000Y-91872000D01*
%TO.C,C3*%
X122942000Y-70428000D02*
X122942000Y-72828000D01*
X122942000Y-72828000D02*
X130042000Y-72828000D01*
X130042000Y-70428000D02*
X122942000Y-70428000D01*
X130042000Y-72828000D02*
X130042000Y-70428000D01*
%TO.C,U4*%
X184612000Y-64376000D02*
X184612000Y-84976000D01*
X184612000Y-84976000D02*
X195372000Y-84976000D01*
X195372000Y-64376000D02*
X184612000Y-64376000D01*
X195372000Y-84976000D02*
X195372000Y-64376000D01*
%TO.C,R12*%
X98830000Y-68360000D02*
X101830000Y-68360000D01*
X101830000Y-68360000D02*
X101830000Y-56100000D01*
X98830000Y-56100000D02*
X98830000Y-68360000D01*
X101830000Y-56100000D02*
X98830000Y-56100000D01*
%TO.C,D3*%
X162642000Y-101398000D02*
X162642000Y-107898000D01*
X162642000Y-107898000D02*
X169092000Y-107898000D01*
X169092000Y-101398000D02*
X162642000Y-101398000D01*
X169092000Y-107898000D02*
X169092000Y-101398000D01*
%TO.C,R20*%
X139705639Y-74175713D02*
X139705639Y-77175713D01*
X139705639Y-77175713D02*
X151965639Y-77175713D01*
X151965639Y-74175713D02*
X139705639Y-74175713D01*
X151965639Y-77175713D02*
X151965639Y-74175713D01*
%TO.C,R3*%
X152185000Y-68350000D02*
X155185000Y-68350000D01*
X155185000Y-68350000D02*
X155185000Y-56090000D01*
X152185000Y-56090000D02*
X152185000Y-68350000D01*
X155185000Y-56090000D02*
X152185000Y-56090000D01*
%TO.C,Q1*%
X169170000Y-85154000D02*
X169170000Y-89894000D01*
X169170000Y-85154000D02*
X176270000Y-85154000D01*
X176270000Y-89894000D02*
X169170000Y-89894000D01*
X176270000Y-89894000D02*
X176270000Y-85154000D01*
%TO.C,SW1*%
X142634000Y-93992000D02*
X142634000Y-108192000D01*
X142634000Y-93992000D02*
X160134000Y-93992000D01*
X160134000Y-108192000D02*
X142634000Y-108192000D01*
X160134000Y-108192000D02*
X160134000Y-93992000D01*
%TO.C,J1*%
X215046000Y-83440000D02*
X203546000Y-83440000D01*
X203546000Y-83440000D02*
X203546000Y-94440000D01*
X215046000Y-94440000D02*
X215046000Y-83440000D01*
X203546000Y-94440000D02*
X215046000Y-94440000D01*
%TO.C,C7*%
X203484380Y-77724000D02*
G75*
G03*
X196684380Y-77724000I-3400000J0D01*
G01*
X196684380Y-77724000D02*
G75*
G03*
X203484380Y-77724000I3400000J0D01*
G01*
%TO.C,J3*%
X91552000Y-94868000D02*
X103052000Y-94868000D01*
X103052000Y-94868000D02*
X103052000Y-83868000D01*
X91552000Y-83868000D02*
X91552000Y-94868000D01*
X103052000Y-83868000D02*
X91552000Y-83868000D01*
%TO.C,R19*%
X139666000Y-85622000D02*
X139666000Y-88622000D01*
X139666000Y-88622000D02*
X151926000Y-88622000D01*
X151926000Y-85622000D02*
X139666000Y-85622000D01*
X151926000Y-88622000D02*
X151926000Y-85622000D01*
%TO.C,R6*%
X132325000Y-56090000D02*
X129325000Y-56090000D01*
X129325000Y-56090000D02*
X129325000Y-68350000D01*
X132325000Y-68350000D02*
X132325000Y-56090000D01*
X129325000Y-68350000D02*
X132325000Y-68350000D01*
%TO.C,H3*%
X213870000Y-104140000D02*
G75*
G03*
X207770000Y-104140000I-3050000J0D01*
G01*
X207770000Y-104140000D02*
G75*
G03*
X213870000Y-104140000I3050000J0D01*
G01*
%TO.C,R5*%
X133135000Y-68350000D02*
X136135000Y-68350000D01*
X136135000Y-68350000D02*
X136135000Y-56090000D01*
X133135000Y-56090000D02*
X133135000Y-68350000D01*
X136135000Y-56090000D02*
X133135000Y-56090000D01*
%TO.C,R7*%
X109440000Y-73430000D02*
X109440000Y-76430000D01*
X109440000Y-76430000D02*
X121700000Y-76430000D01*
X121700000Y-73430000D02*
X109440000Y-73430000D01*
X121700000Y-76430000D02*
X121700000Y-73430000D01*
%TO.C,R17*%
X139666000Y-77915825D02*
X139666000Y-80915825D01*
X139666000Y-80915825D02*
X151926000Y-80915825D01*
X151926000Y-77915825D02*
X139666000Y-77915825D01*
X151926000Y-80915825D02*
X151926000Y-77915825D01*
%TO.C,J2*%
X140992000Y-107200000D02*
X140992000Y-96000000D01*
X140992000Y-96000000D02*
X137392000Y-96000000D01*
X137392000Y-107200000D02*
X140992000Y-107200000D01*
X137392000Y-96000000D02*
X137392000Y-107200000D01*
%TO.C,R4*%
X148375000Y-68350000D02*
X151375000Y-68350000D01*
X151375000Y-68350000D02*
X151375000Y-56090000D01*
X148375000Y-56090000D02*
X148375000Y-68350000D01*
X151375000Y-56090000D02*
X148375000Y-56090000D01*
%TO.C,H4*%
X98300000Y-104140000D02*
G75*
G03*
X92200000Y-104140000I-3050000J0D01*
G01*
X92200000Y-104140000D02*
G75*
G03*
X98300000Y-104140000I3050000J0D01*
G01*
%TO.C,H5*%
X109730000Y-101600000D02*
G75*
G03*
X103630000Y-101600000I-3050000J0D01*
G01*
X103630000Y-101600000D02*
G75*
G03*
X109730000Y-101600000I3050000J0D01*
G01*
%TO.C,R11*%
X109440000Y-77240000D02*
X109440000Y-80240000D01*
X109440000Y-80240000D02*
X121700000Y-80240000D01*
X121700000Y-77240000D02*
X109440000Y-77240000D01*
X121700000Y-80240000D02*
X121700000Y-77240000D01*
%TO.C,R1*%
X124705000Y-56090000D02*
X121705000Y-56090000D01*
X121705000Y-56090000D02*
X121705000Y-68350000D01*
X124705000Y-68350000D02*
X124705000Y-56090000D01*
X121705000Y-68350000D02*
X124705000Y-68350000D01*
%TO.C,C5*%
X137662000Y-76892000D02*
X137662000Y-74492000D01*
X137662000Y-74492000D02*
X130562000Y-74492000D01*
X130562000Y-76892000D02*
X137662000Y-76892000D01*
X130562000Y-74492000D02*
X130562000Y-76892000D01*
%TO.C,C6*%
X203786000Y-69596000D02*
G75*
G03*
X196986000Y-69596000I-3400000J0D01*
G01*
X196986000Y-69596000D02*
G75*
G03*
X203786000Y-69596000I3400000J0D01*
G01*
%TO.C,C2*%
X129760000Y-50870000D02*
X129760000Y-53270000D01*
X129760000Y-53270000D02*
X136860000Y-53270000D01*
X136860000Y-50870000D02*
X129760000Y-50870000D01*
X136860000Y-53270000D02*
X136860000Y-50870000D01*
%TO.C,K1*%
X206048000Y-101552000D02*
X181048000Y-101552000D01*
X206048000Y-95552000D02*
X206048000Y-101552000D01*
X181048000Y-101552000D02*
X181048000Y-95552000D01*
X181048000Y-95552000D02*
X206048000Y-95552000D01*
%TO.C,C1*%
X120910000Y-50870000D02*
X120910000Y-53270000D01*
X120910000Y-53270000D02*
X128010000Y-53270000D01*
X128010000Y-50870000D02*
X120910000Y-50870000D01*
X128010000Y-53270000D02*
X128010000Y-50870000D01*
%TO.C,R13*%
X103598000Y-50824000D02*
X103598000Y-53824000D01*
X103598000Y-53824000D02*
X115858000Y-53824000D01*
X115858000Y-50824000D02*
X103598000Y-50824000D01*
X115858000Y-53824000D02*
X115858000Y-50824000D01*
%TD*%
M02*
