%TF.GenerationSoftware,KiCad,Pcbnew,7.0.10*%
%TF.CreationDate,2024-03-07T19:54:17+07:00*%
%TF.ProjectId,solder-reflow,736f6c64-6572-42d7-9265-666c6f772e6b,rev?*%
%TF.SameCoordinates,Original*%
%TF.FileFunction,AssemblyDrawing,Bot*%
%FSLAX46Y46*%
G04 Gerber Fmt 4.6, Leading zero omitted, Abs format (unit mm)*
G04 Created by KiCad (PCBNEW 7.0.10) date 2024-03-07 19:54:17*
%MOMM*%
%LPD*%
G01*
G04 APERTURE LIST*
%ADD10C,0.150000*%
G04 APERTURE END LIST*
D10*
X172313433Y-47414339D02*
X172646766Y-46938148D01*
X172884861Y-47414339D02*
X172884861Y-46414339D01*
X172884861Y-46414339D02*
X172503909Y-46414339D01*
X172503909Y-46414339D02*
X172408671Y-46461958D01*
X172408671Y-46461958D02*
X172361052Y-46509577D01*
X172361052Y-46509577D02*
X172313433Y-46604815D01*
X172313433Y-46604815D02*
X172313433Y-46747672D01*
X172313433Y-46747672D02*
X172361052Y-46842910D01*
X172361052Y-46842910D02*
X172408671Y-46890529D01*
X172408671Y-46890529D02*
X172503909Y-46938148D01*
X172503909Y-46938148D02*
X172884861Y-46938148D01*
X171884861Y-46890529D02*
X171551528Y-46890529D01*
X171408671Y-47414339D02*
X171884861Y-47414339D01*
X171884861Y-47414339D02*
X171884861Y-46414339D01*
X171884861Y-46414339D02*
X171408671Y-46414339D01*
X170646766Y-46890529D02*
X170980099Y-46890529D01*
X170980099Y-47414339D02*
X170980099Y-46414339D01*
X170980099Y-46414339D02*
X170503909Y-46414339D01*
X169980099Y-46414339D02*
X169980099Y-46652434D01*
X170218194Y-46557196D02*
X169980099Y-46652434D01*
X169980099Y-46652434D02*
X169742004Y-46557196D01*
X170122956Y-46842910D02*
X169980099Y-46652434D01*
X169980099Y-46652434D02*
X169837242Y-46842910D01*
X169218194Y-46414339D02*
X169218194Y-46652434D01*
X169456289Y-46557196D02*
X169218194Y-46652434D01*
X169218194Y-46652434D02*
X168980099Y-46557196D01*
X169361051Y-46842910D02*
X169218194Y-46652434D01*
X169218194Y-46652434D02*
X169075337Y-46842910D01*
M02*
