M48
; DRILL file {KiCad 7.0.10} date Thu 07 Mar 2024 07:55:46 PM WIB
; FORMAT={-:-/ absolute / metric / decimal}
; #@! TF.CreationDate,2024-03-07T19:55:46+07:00
; #@! TF.GenerationSoftware,Kicad,Pcbnew,7.0.10
; #@! TF.FileFunction,Plated,1,2,PTH
FMAT,2
METRIC
; #@! TA.AperFunction,Plated,PTH,ViaDrill
T1C0.400
; #@! TA.AperFunction,Plated,PTH,ViaDrill
T2C0.500
; #@! TA.AperFunction,Plated,PTH,ComponentDrill
T3C0.750
; #@! TA.AperFunction,Plated,PTH,ComponentDrill
T4C0.800
; #@! TA.AperFunction,Plated,PTH,ComponentDrill
T5C0.900
; #@! TA.AperFunction,Plated,PTH,ComponentDrill
T6C1.000
; #@! TA.AperFunction,Plated,PTH,ComponentDrill
T7C1.100
; #@! TA.AperFunction,Plated,PTH,ComponentDrill
T8C1.200
; #@! TA.AperFunction,Plated,PTH,ComponentDrill
T9C1.300
; #@! TA.AperFunction,Plated,PTH,ComponentDrill
T10C1.400
; #@! TA.AperFunction,Plated,PTH,ComponentDrill
T11C1.500
; #@! TA.AperFunction,Plated,PTH,ComponentDrill
T12C3.200
%
G90
G05
T1
X155.956Y-70.104
X160.02Y-83.312
X169.672Y-76.2
X172.72Y-75.692
X176.276Y-54.864
X176.276Y-64.516
T2
X102.108Y-70.104
X106.055Y-70.221
X108.204Y-64.008
X120.904Y-56.306
X129.54Y-83.312
X132.08Y-65.2
X133.604Y-61.468
X133.604Y-99.06
X134.112Y-73.66
X134.112Y-97.028
X135.128Y-102.616
X141.132Y-56.388
X141.132Y-66.04
X143.256Y-77.724
X143.256Y-80.772
X143.764Y-91.44
X145.288Y-53.258
X145.551Y-69.841
X145.796Y-72.136
X162.569Y-83.321
T3
X94.94Y-74.945
X94.94Y-77.485
T4
X100.33Y-57.15
X100.33Y-67.31
X104.155Y-57.14
X104.155Y-67.3
X104.648Y-52.324
X107.965Y-57.14
X107.965Y-67.3
X110.49Y-71.12
X110.49Y-74.93
X110.49Y-78.74
X111.775Y-58.41
X111.775Y-60.95
X111.775Y-63.49
X111.775Y-66.03
X113.03Y-84.73
X114.808Y-52.324
X115.57Y-84.73
X118.11Y-84.73
X119.395Y-58.41
X119.395Y-60.95
X119.395Y-63.49
X119.395Y-66.03
X120.65Y-71.12
X120.65Y-74.93
X120.65Y-78.74
X121.96Y-52.07
X123.205Y-57.14
X123.205Y-67.3
X123.992Y-71.628
X126.96Y-52.07
X127.015Y-57.14
X127.015Y-67.3
X128.992Y-71.628
X130.81Y-52.07
X130.825Y-57.14
X130.825Y-67.3
X131.612Y-71.628
X131.612Y-75.692
X134.635Y-57.14
X134.635Y-67.3
X135.81Y-52.07
X136.612Y-71.628
X136.612Y-75.692
X138.43Y-58.42
X138.43Y-60.96
X138.43Y-63.5
X138.43Y-66.04
X140.716Y-79.416
X140.716Y-83.312
X140.716Y-87.122
X140.756Y-71.866
X140.756Y-75.676
X146.05Y-58.42
X146.05Y-60.96
X146.05Y-63.5
X146.05Y-66.04
X149.875Y-57.14
X149.875Y-67.3
X150.876Y-79.416
X150.876Y-83.312
X150.876Y-87.122
X150.916Y-71.866
X150.916Y-75.676
X153.685Y-57.14
X153.685Y-67.3
X154.94Y-85.746
X154.94Y-89.149
X165.1Y-85.746
X165.1Y-89.149
X170.18Y-87.884
X172.72Y-87.884
X175.26Y-87.884
X178.816Y-86.868
X178.816Y-89.916
X188.976Y-86.868
X188.976Y-89.916
X198.834Y-77.724
X199.136Y-69.596
X201.334Y-77.724
X201.636Y-69.596
T5
X164.333Y-97.028
X164.592Y-104.648
X166.873Y-97.028
X167.132Y-104.648
T6
X139.192Y-97.78
X139.192Y-100.32
X139.192Y-102.86
X139.192Y-105.4
X144.134Y-98.592
X144.134Y-101.092
X144.134Y-103.592
X158.634Y-98.592
X158.634Y-103.592
X159.004Y-57.15
X159.004Y-59.69
X159.004Y-62.23
X159.004Y-64.77
X159.004Y-67.31
X159.004Y-69.85
X159.004Y-72.39
X159.004Y-74.93
X181.864Y-57.15
X181.864Y-59.69
X181.864Y-62.23
X181.864Y-64.77
X181.864Y-67.31
X181.864Y-69.85
X181.864Y-72.39
X181.864Y-74.93
X183.388Y-99.952
X185.928Y-99.952
X196.088Y-99.952
X203.708Y-99.952
T7
X174.752Y-93.472
X184.912Y-93.472
T8
X187.452Y-83.726
X189.992Y-83.726
X192.532Y-83.726
T9
X173.228Y-105.41
X177.828Y-105.41
X199.628Y-105.41
X204.228Y-105.41
T10
X98.552Y-86.868
X98.552Y-91.868
X208.046Y-86.44
X208.046Y-91.44
T12
X95.25Y-53.34
X95.25Y-104.14
X106.68Y-101.6
X210.82Y-53.34
X210.82Y-104.14
T6
G00X186.249Y-57.372
M15
G01X186.249Y-59.372
M16
G05
G00X191.95Y-55.372
M15
G01X189.95Y-55.372
M16
G05
G00X191.95Y-61.372
M15
G01X189.95Y-61.372
M16
G05
T11
G00X150.984Y-95.492
M15
G01X152.284Y-95.492
M16
G05
G00X150.984Y-106.692
M15
G01X152.284Y-106.692
M16
G05
M30
